<mxfile host="app.diagrams.net" modified="2022-03-31T22:25:41.102Z" agent="5.0 (Windows NT 10.0; Win64; x64) AppleWebKit/537.36 (KHTML, like Gecko) Chrome/100.0.4896.60 Safari/537.36" etag="F3QsmLgO04pbDUUWI8Wv" version="17.4.0" type="github" pages="5">
  <diagram id="JWzHGEEmHOpxPtbiXyBe" name="4.2">
    <mxGraphModel dx="1422" dy="758" grid="1" gridSize="10" guides="1" tooltips="1" connect="1" arrows="1" fold="1" page="1" pageScale="1" pageWidth="850" pageHeight="1100" math="0" shadow="0">
      <root>
        <mxCell id="0" />
        <mxCell id="1" parent="0" />
        <mxCell id="SoTEVqlD-ZGMPwPlBJG8-1" value="Assignment Submission" style="swimlane;swimlaneLine=1;fillColor=#fff2cc;strokeColor=#d6b656;" parent="1" vertex="1">
          <mxGeometry x="25" y="40" width="800" height="686" as="geometry" />
        </mxCell>
        <mxCell id="N_ucVqVdbEi61Vxu9FL0-21" style="edgeStyle=orthogonalEdgeStyle;rounded=0;orthogonalLoop=1;jettySize=auto;html=1;exitX=1;exitY=0.5;exitDx=0;exitDy=0;entryX=0;entryY=0.5;entryDx=0;entryDy=0;dashed=1;fontSize=9;endArrow=none;endFill=0;" parent="SoTEVqlD-ZGMPwPlBJG8-1" source="N_ucVqVdbEi61Vxu9FL0-1" target="N_ucVqVdbEi61Vxu9FL0-16" edge="1">
          <mxGeometry relative="1" as="geometry" />
        </mxCell>
        <mxCell id="SoTEVqlD-ZGMPwPlBJG8-13" style="edgeStyle=none;rounded=0;orthogonalLoop=1;jettySize=auto;html=1;endArrow=block;endFill=1;exitX=0.04;exitY=-0.026;exitDx=0;exitDy=0;exitPerimeter=0;entryX=0;entryY=1;entryDx=0;entryDy=0;" parent="SoTEVqlD-ZGMPwPlBJG8-1" source="SoTEVqlD-ZGMPwPlBJG8-26" target="SoTEVqlD-ZGMPwPlBJG8-7" edge="1">
          <mxGeometry relative="1" as="geometry">
            <mxPoint x="81" y="126" as="sourcePoint" />
            <mxPoint x="201" y="126" as="targetPoint" />
          </mxGeometry>
        </mxCell>
        <mxCell id="SoTEVqlD-ZGMPwPlBJG8-15" value="Login Request" style="edgeLabel;html=1;align=center;verticalAlign=middle;resizable=0;points=[];fontSize=9;labelBackgroundColor=none;" parent="SoTEVqlD-ZGMPwPlBJG8-13" connectable="0" vertex="1">
          <mxGeometry x="-0.2034" y="-1" relative="1" as="geometry">
            <mxPoint x="3" y="-8" as="offset" />
          </mxGeometry>
        </mxCell>
        <mxCell id="SoTEVqlD-ZGMPwPlBJG8-2" value="Student" style="shape=umlActor;verticalLabelPosition=bottom;verticalAlign=top;html=1;outlineConnect=0;" parent="SoTEVqlD-ZGMPwPlBJG8-1" vertex="1">
          <mxGeometry x="52" y="37" width="22" height="39" as="geometry" />
        </mxCell>
        <mxCell id="SoTEVqlD-ZGMPwPlBJG8-14" style="edgeStyle=none;rounded=0;orthogonalLoop=1;jettySize=auto;html=1;exitX=0.5;exitY=1;exitDx=0;exitDy=0;entryX=0;entryY=0.5;entryDx=0;entryDy=0;endArrow=none;endFill=0;dashed=1;" parent="SoTEVqlD-ZGMPwPlBJG8-1" source="SoTEVqlD-ZGMPwPlBJG8-3" target="SoTEVqlD-ZGMPwPlBJG8-7" edge="1">
          <mxGeometry relative="1" as="geometry" />
        </mxCell>
        <mxCell id="SoTEVqlD-ZGMPwPlBJG8-3" value="elearning.ua.pt" style="rounded=0;whiteSpace=wrap;html=1;" parent="SoTEVqlD-ZGMPwPlBJG8-1" vertex="1">
          <mxGeometry x="159.98999999999998" y="37" width="100" height="40" as="geometry" />
        </mxCell>
        <mxCell id="SoTEVqlD-ZGMPwPlBJG8-17" style="edgeStyle=none;rounded=0;orthogonalLoop=1;jettySize=auto;html=1;exitX=0.5;exitY=1;exitDx=0;exitDy=0;entryX=0;entryY=0.5;entryDx=0;entryDy=0;dashed=1;endArrow=none;endFill=0;" parent="SoTEVqlD-ZGMPwPlBJG8-1" source="SoTEVqlD-ZGMPwPlBJG8-4" target="SoTEVqlD-ZGMPwPlBJG8-16" edge="1">
          <mxGeometry relative="1" as="geometry" />
        </mxCell>
        <mxCell id="SoTEVqlD-ZGMPwPlBJG8-4" value="Idp.ua.pt" style="rounded=0;whiteSpace=wrap;html=1;" parent="SoTEVqlD-ZGMPwPlBJG8-1" vertex="1">
          <mxGeometry x="360" y="36" width="100" height="40" as="geometry" />
        </mxCell>
        <mxCell id="SoTEVqlD-ZGMPwPlBJG8-18" style="edgeStyle=none;rounded=0;orthogonalLoop=1;jettySize=auto;html=1;endArrow=block;endFill=1;exitX=1;exitY=0;exitDx=0;exitDy=0;entryX=0.016;entryY=0.981;entryDx=0;entryDy=0;entryPerimeter=0;" parent="SoTEVqlD-ZGMPwPlBJG8-1" source="SoTEVqlD-ZGMPwPlBJG8-7" target="SoTEVqlD-ZGMPwPlBJG8-16" edge="1">
          <mxGeometry relative="1" as="geometry">
            <mxPoint x="220" y="206" as="sourcePoint" />
            <mxPoint x="400" y="206" as="targetPoint" />
          </mxGeometry>
        </mxCell>
        <mxCell id="SoTEVqlD-ZGMPwPlBJG8-40" style="edgeStyle=none;rounded=0;orthogonalLoop=1;jettySize=auto;html=1;exitX=1;exitY=0.5;exitDx=0;exitDy=0;entryX=0;entryY=0.5;entryDx=0;entryDy=0;dashed=1;fontSize=10;endArrow=none;endFill=0;" parent="SoTEVqlD-ZGMPwPlBJG8-1" source="SoTEVqlD-ZGMPwPlBJG8-7" target="SoTEVqlD-ZGMPwPlBJG8-39" edge="1">
          <mxGeometry relative="1" as="geometry" />
        </mxCell>
        <mxCell id="SoTEVqlD-ZGMPwPlBJG8-7" value="" style="rounded=0;whiteSpace=wrap;html=1;rotation=90;" parent="SoTEVqlD-ZGMPwPlBJG8-1" vertex="1">
          <mxGeometry x="170.42" y="160.72" width="79.16" height="10" as="geometry" />
        </mxCell>
        <mxCell id="SoTEVqlD-ZGMPwPlBJG8-30" style="edgeStyle=orthogonalEdgeStyle;curved=1;rounded=0;orthogonalLoop=1;jettySize=auto;html=1;fontSize=10;endArrow=open;endFill=0;dashed=1;exitX=0.167;exitY=0.981;exitDx=0;exitDy=0;exitPerimeter=0;entryX=0.225;entryY=-0.005;entryDx=0;entryDy=0;entryPerimeter=0;" parent="SoTEVqlD-ZGMPwPlBJG8-1" source="SoTEVqlD-ZGMPwPlBJG8-16" target="SoTEVqlD-ZGMPwPlBJG8-26" edge="1">
          <mxGeometry relative="1" as="geometry">
            <mxPoint x="401.5" y="226" as="sourcePoint" />
            <mxPoint x="81.5" y="226" as="targetPoint" />
          </mxGeometry>
        </mxCell>
        <mxCell id="SoTEVqlD-ZGMPwPlBJG8-36" style="rounded=0;orthogonalLoop=1;jettySize=auto;html=1;fontSize=10;endArrow=open;endFill=0;dashed=1;exitX=0.979;exitY=0.988;exitDx=0;exitDy=0;exitPerimeter=0;entryX=0.066;entryY=-0.003;entryDx=0;entryDy=0;entryPerimeter=0;" parent="SoTEVqlD-ZGMPwPlBJG8-1" source="SoTEVqlD-ZGMPwPlBJG8-16" target="SoTEVqlD-ZGMPwPlBJG8-39" edge="1">
          <mxGeometry relative="1" as="geometry">
            <mxPoint x="400" y="337" as="sourcePoint" />
            <mxPoint x="230" y="337" as="targetPoint" />
          </mxGeometry>
        </mxCell>
        <mxCell id="SoTEVqlD-ZGMPwPlBJG8-16" value="" style="rounded=0;whiteSpace=wrap;html=1;rotation=90;" parent="SoTEVqlD-ZGMPwPlBJG8-1" vertex="1">
          <mxGeometry x="341.5" y="266.5" width="137" height="10" as="geometry" />
        </mxCell>
        <mxCell id="SoTEVqlD-ZGMPwPlBJG8-21" value="&lt;font style=&quot;font-size: 9px;&quot;&gt;Check if active session&lt;/font&gt;" style="text;html=1;align=center;verticalAlign=middle;resizable=0;points=[];autosize=1;strokeColor=none;fillColor=none;fontSize=9;" parent="SoTEVqlD-ZGMPwPlBJG8-1" vertex="1">
          <mxGeometry x="230" y="149.46" width="110" height="20" as="geometry" />
        </mxCell>
        <mxCell id="SoTEVqlD-ZGMPwPlBJG8-24" value="User Authentication Request" style="text;html=1;align=center;verticalAlign=middle;resizable=0;points=[];autosize=1;strokeColor=none;fillColor=none;fontSize=9;" parent="SoTEVqlD-ZGMPwPlBJG8-1" vertex="1">
          <mxGeometry x="250" y="185" width="130" height="20" as="geometry" />
        </mxCell>
        <mxCell id="SoTEVqlD-ZGMPwPlBJG8-26" value="" style="rounded=0;whiteSpace=wrap;html=1;rotation=90;" parent="SoTEVqlD-ZGMPwPlBJG8-1" vertex="1">
          <mxGeometry x="-206.35" y="368.36" width="538.71" height="10" as="geometry" />
        </mxCell>
        <mxCell id="SoTEVqlD-ZGMPwPlBJG8-31" value="Login form" style="text;html=1;align=center;verticalAlign=middle;resizable=0;points=[];autosize=1;strokeColor=none;fillColor=none;fontSize=9;" parent="SoTEVqlD-ZGMPwPlBJG8-1" vertex="1">
          <mxGeometry x="111" y="205" width="60" height="20" as="geometry" />
        </mxCell>
        <mxCell id="SoTEVqlD-ZGMPwPlBJG8-32" value="" style="endArrow=block;html=1;rounded=0;fontSize=10;curved=1;endFill=1;exitX=0.278;exitY=0.002;exitDx=0;exitDy=0;exitPerimeter=0;entryX=0.379;entryY=1.016;entryDx=0;entryDy=0;entryPerimeter=0;" parent="SoTEVqlD-ZGMPwPlBJG8-1" source="SoTEVqlD-ZGMPwPlBJG8-26" target="SoTEVqlD-ZGMPwPlBJG8-16" edge="1">
          <mxGeometry width="50" height="50" relative="1" as="geometry">
            <mxPoint x="81.5" y="255" as="sourcePoint" />
            <mxPoint x="401.5" y="255" as="targetPoint" />
          </mxGeometry>
        </mxCell>
        <mxCell id="SoTEVqlD-ZGMPwPlBJG8-33" value="Username / Password" style="text;html=1;align=center;verticalAlign=middle;resizable=0;points=[];autosize=1;strokeColor=none;fillColor=none;fontSize=9;" parent="SoTEVqlD-ZGMPwPlBJG8-1" vertex="1">
          <mxGeometry x="266.5" y="236" width="100" height="20" as="geometry" />
        </mxCell>
        <mxCell id="SoTEVqlD-ZGMPwPlBJG8-34" style="edgeStyle=orthogonalEdgeStyle;curved=1;rounded=0;orthogonalLoop=1;jettySize=auto;html=1;exitX=0.5;exitY=0;exitDx=0;exitDy=0;entryX=0.75;entryY=0;entryDx=0;entryDy=0;fontSize=10;endArrow=block;endFill=1;" parent="SoTEVqlD-ZGMPwPlBJG8-1" source="SoTEVqlD-ZGMPwPlBJG8-16" target="SoTEVqlD-ZGMPwPlBJG8-16" edge="1">
          <mxGeometry relative="1" as="geometry">
            <Array as="points">
              <mxPoint x="440" y="271" />
              <mxPoint x="440" y="306" />
            </Array>
          </mxGeometry>
        </mxCell>
        <mxCell id="SoTEVqlD-ZGMPwPlBJG8-35" value="Authenticate user" style="text;html=1;align=center;verticalAlign=middle;resizable=0;points=[];autosize=1;strokeColor=none;fillColor=none;fontSize=9;" parent="SoTEVqlD-ZGMPwPlBJG8-1" vertex="1">
          <mxGeometry x="437" y="278" width="90" height="20" as="geometry" />
        </mxCell>
        <mxCell id="SoTEVqlD-ZGMPwPlBJG8-38" value="id_token" style="text;html=1;align=center;verticalAlign=middle;resizable=0;points=[];autosize=1;strokeColor=none;fillColor=none;fontSize=9;" parent="SoTEVqlD-ZGMPwPlBJG8-1" vertex="1">
          <mxGeometry x="290" y="317" width="50" height="20" as="geometry" />
        </mxCell>
        <mxCell id="SoTEVqlD-ZGMPwPlBJG8-41" style="edgeStyle=none;rounded=0;orthogonalLoop=1;jettySize=auto;html=1;dashed=1;fontSize=10;endArrow=open;endFill=0;exitX=0.135;exitY=1.005;exitDx=0;exitDy=0;exitPerimeter=0;entryX=0.446;entryY=0.004;entryDx=0;entryDy=0;entryPerimeter=0;" parent="SoTEVqlD-ZGMPwPlBJG8-1" source="SoTEVqlD-ZGMPwPlBJG8-39" target="SoTEVqlD-ZGMPwPlBJG8-26" edge="1">
          <mxGeometry relative="1" as="geometry">
            <mxPoint x="201" y="346" as="sourcePoint" />
            <mxPoint x="71" y="346" as="targetPoint" />
          </mxGeometry>
        </mxCell>
        <mxCell id="SoTEVqlD-ZGMPwPlBJG8-44" style="edgeStyle=none;rounded=0;orthogonalLoop=1;jettySize=auto;html=1;fontSize=10;endArrow=block;endFill=1;exitX=0.443;exitY=-0.002;exitDx=0;exitDy=0;exitPerimeter=0;entryX=-0.003;entryY=0.53;entryDx=0;entryDy=0;entryPerimeter=0;" parent="SoTEVqlD-ZGMPwPlBJG8-1" source="SoTEVqlD-ZGMPwPlBJG8-39" target="SoTEVqlD-ZGMPwPlBJG8-43" edge="1">
          <mxGeometry relative="1" as="geometry">
            <mxPoint x="220" y="386" as="sourcePoint" />
            <mxPoint x="490" y="386" as="targetPoint" />
          </mxGeometry>
        </mxCell>
        <mxCell id="N_ucVqVdbEi61Vxu9FL0-32" style="rounded=0;orthogonalLoop=1;jettySize=auto;html=1;exitX=1;exitY=0.5;exitDx=0;exitDy=0;entryX=0;entryY=0.5;entryDx=0;entryDy=0;fontSize=9;endArrow=none;endFill=0;dashed=1;" parent="SoTEVqlD-ZGMPwPlBJG8-1" source="SoTEVqlD-ZGMPwPlBJG8-39" target="N_ucVqVdbEi61Vxu9FL0-29" edge="1">
          <mxGeometry relative="1" as="geometry" />
        </mxCell>
        <mxCell id="SoTEVqlD-ZGMPwPlBJG8-39" value="" style="rounded=0;whiteSpace=wrap;html=1;rotation=90;" parent="SoTEVqlD-ZGMPwPlBJG8-1" vertex="1">
          <mxGeometry x="145.02" y="388.46" width="129.94" height="10" as="geometry" />
        </mxCell>
        <mxCell id="SoTEVqlD-ZGMPwPlBJG8-42" value="id_token" style="text;html=1;align=center;verticalAlign=middle;resizable=0;points=[];autosize=1;strokeColor=none;fillColor=none;fontSize=9;" parent="SoTEVqlD-ZGMPwPlBJG8-1" vertex="1">
          <mxGeometry x="116" y="326" width="50" height="20" as="geometry" />
        </mxCell>
        <mxCell id="N_ucVqVdbEi61Vxu9FL0-2" style="edgeStyle=orthogonalEdgeStyle;rounded=0;orthogonalLoop=1;jettySize=auto;html=1;exitX=0.5;exitY=1;exitDx=0;exitDy=0;entryX=0;entryY=0.5;entryDx=0;entryDy=0;endArrow=none;endFill=0;dashed=1;" parent="SoTEVqlD-ZGMPwPlBJG8-1" source="SoTEVqlD-ZGMPwPlBJG8-43" target="N_ucVqVdbEi61Vxu9FL0-1" edge="1">
          <mxGeometry relative="1" as="geometry" />
        </mxCell>
        <mxCell id="SoTEVqlD-ZGMPwPlBJG8-43" value="UC" style="rounded=0;whiteSpace=wrap;html=1;" parent="SoTEVqlD-ZGMPwPlBJG8-1" vertex="1">
          <mxGeometry x="493.99" y="364.88" width="100" height="40" as="geometry" />
        </mxCell>
        <mxCell id="SoTEVqlD-ZGMPwPlBJG8-45" value="" style="endArrow=block;html=1;rounded=0;fontSize=10;endFill=1;exitX=0.498;exitY=-0.002;exitDx=0;exitDy=0;exitPerimeter=0;entryX=0.358;entryY=1.005;entryDx=0;entryDy=0;entryPerimeter=0;" parent="SoTEVqlD-ZGMPwPlBJG8-1" source="SoTEVqlD-ZGMPwPlBJG8-26" target="SoTEVqlD-ZGMPwPlBJG8-39" edge="1">
          <mxGeometry width="50" height="50" relative="1" as="geometry">
            <mxPoint x="81" y="374.38" as="sourcePoint" />
            <mxPoint x="201" y="375.38" as="targetPoint" />
          </mxGeometry>
        </mxCell>
        <mxCell id="SoTEVqlD-ZGMPwPlBJG8-46" value="Select UC" style="text;html=1;align=center;verticalAlign=middle;resizable=0;points=[];autosize=1;strokeColor=none;fillColor=none;fontSize=9;" parent="SoTEVqlD-ZGMPwPlBJG8-1" vertex="1">
          <mxGeometry x="106" y="354.88" width="60" height="20" as="geometry" />
        </mxCell>
        <mxCell id="SoTEVqlD-ZGMPwPlBJG8-47" value="Request UC Contents" style="text;html=1;align=center;verticalAlign=middle;resizable=0;points=[];autosize=1;strokeColor=none;fillColor=none;fontSize=9;" parent="SoTEVqlD-ZGMPwPlBJG8-1" vertex="1">
          <mxGeometry x="326.5" y="364.88" width="100" height="20" as="geometry" />
        </mxCell>
        <mxCell id="N_ucVqVdbEi61Vxu9FL0-1" value="" style="rounded=0;whiteSpace=wrap;html=1;rotation=90;" parent="SoTEVqlD-ZGMPwPlBJG8-1" vertex="1">
          <mxGeometry x="519.91" y="439.07" width="48.17" height="10" as="geometry" />
        </mxCell>
        <mxCell id="N_ucVqVdbEi61Vxu9FL0-3" style="rounded=0;orthogonalLoop=1;jettySize=auto;html=1;fontSize=10;endArrow=open;endFill=0;dashed=1;exitX=0.12;exitY=0.996;exitDx=0;exitDy=0;exitPerimeter=0;entryX=0.75;entryY=0;entryDx=0;entryDy=0;" parent="SoTEVqlD-ZGMPwPlBJG8-1" source="N_ucVqVdbEi61Vxu9FL0-1" target="SoTEVqlD-ZGMPwPlBJG8-39" edge="1">
          <mxGeometry relative="1" as="geometry">
            <mxPoint x="529.5" y="426" as="sourcePoint" />
            <mxPoint x="223.5" y="426" as="targetPoint" />
          </mxGeometry>
        </mxCell>
        <mxCell id="N_ucVqVdbEi61Vxu9FL0-4" value="UC Contents" style="text;html=1;align=center;verticalAlign=middle;resizable=0;points=[];autosize=1;strokeColor=none;fillColor=none;fontSize=9;" parent="SoTEVqlD-ZGMPwPlBJG8-1" vertex="1">
          <mxGeometry x="341.5" y="406" width="70" height="20" as="geometry" />
        </mxCell>
        <mxCell id="N_ucVqVdbEi61Vxu9FL0-5" value="" style="endArrow=block;html=1;rounded=0;fontSize=10;endFill=1;exitX=0.629;exitY=0.003;exitDx=0;exitDy=0;exitPerimeter=0;entryX=0.911;entryY=1.004;entryDx=0;entryDy=0;entryPerimeter=0;" parent="SoTEVqlD-ZGMPwPlBJG8-1" source="SoTEVqlD-ZGMPwPlBJG8-26" target="SoTEVqlD-ZGMPwPlBJG8-39" edge="1">
          <mxGeometry width="50" height="50" relative="1" as="geometry">
            <mxPoint x="76" y="446" as="sourcePoint" />
            <mxPoint x="196" y="447" as="targetPoint" />
          </mxGeometry>
        </mxCell>
        <mxCell id="N_ucVqVdbEi61Vxu9FL0-6" value="Submission request" style="text;html=1;align=center;verticalAlign=middle;resizable=0;points=[];autosize=1;strokeColor=none;fillColor=none;fontSize=9;" parent="SoTEVqlD-ZGMPwPlBJG8-1" vertex="1">
          <mxGeometry x="91" y="426" width="90" height="20" as="geometry" />
        </mxCell>
        <mxCell id="N_ucVqVdbEi61Vxu9FL0-7" value="" style="endArrow=block;html=1;rounded=0;fontSize=10;endFill=1;exitX=0.981;exitY=0;exitDx=0;exitDy=0;exitPerimeter=0;entryX=0.767;entryY=0.996;entryDx=0;entryDy=0;entryPerimeter=0;" parent="SoTEVqlD-ZGMPwPlBJG8-1" source="SoTEVqlD-ZGMPwPlBJG8-39" target="N_ucVqVdbEi61Vxu9FL0-1" edge="1">
          <mxGeometry width="50" height="50" relative="1" as="geometry">
            <mxPoint x="220" y="456.0000000000001" as="sourcePoint" />
            <mxPoint x="530" y="457" as="targetPoint" />
          </mxGeometry>
        </mxCell>
        <mxCell id="N_ucVqVdbEi61Vxu9FL0-8" value="Submission request" style="text;html=1;align=center;verticalAlign=middle;resizable=0;points=[];autosize=1;strokeColor=none;fillColor=none;fontSize=9;" parent="SoTEVqlD-ZGMPwPlBJG8-1" vertex="1">
          <mxGeometry x="331.5" y="436" width="90" height="20" as="geometry" />
        </mxCell>
        <mxCell id="N_ucVqVdbEi61Vxu9FL0-11" style="edgeStyle=orthogonalEdgeStyle;rounded=0;orthogonalLoop=1;jettySize=auto;html=1;exitX=0.5;exitY=1;exitDx=0;exitDy=0;entryX=0;entryY=0.5;entryDx=0;entryDy=0;dashed=1;fontSize=9;endArrow=none;endFill=0;" parent="SoTEVqlD-ZGMPwPlBJG8-1" source="N_ucVqVdbEi61Vxu9FL0-9" target="N_ucVqVdbEi61Vxu9FL0-10" edge="1">
          <mxGeometry relative="1" as="geometry" />
        </mxCell>
        <mxCell id="N_ucVqVdbEi61Vxu9FL0-9" value="File Explorer" style="rounded=0;whiteSpace=wrap;html=1;" parent="SoTEVqlD-ZGMPwPlBJG8-1" vertex="1">
          <mxGeometry x="640" y="36" width="100" height="40" as="geometry" />
        </mxCell>
        <mxCell id="N_ucVqVdbEi61Vxu9FL0-18" style="edgeStyle=orthogonalEdgeStyle;rounded=0;orthogonalLoop=1;jettySize=auto;html=1;exitX=1;exitY=0.5;exitDx=0;exitDy=0;entryX=0.509;entryY=0.491;entryDx=0;entryDy=0;entryPerimeter=0;dashed=1;fontSize=9;endArrow=none;endFill=0;" parent="SoTEVqlD-ZGMPwPlBJG8-1" source="N_ucVqVdbEi61Vxu9FL0-10" target="N_ucVqVdbEi61Vxu9FL0-17" edge="1">
          <mxGeometry relative="1" as="geometry" />
        </mxCell>
        <mxCell id="N_ucVqVdbEi61Vxu9FL0-10" value="" style="rounded=0;whiteSpace=wrap;html=1;rotation=90;" parent="SoTEVqlD-ZGMPwPlBJG8-1" vertex="1">
          <mxGeometry x="653.4" y="496.53" width="73.23" height="10" as="geometry" />
        </mxCell>
        <mxCell id="N_ucVqVdbEi61Vxu9FL0-12" value="" style="endArrow=block;html=1;rounded=0;fontSize=10;endFill=1;exitX=0.954;exitY=-0.003;exitDx=0;exitDy=0;exitPerimeter=0;entryX=0.013;entryY=1.001;entryDx=0;entryDy=0;entryPerimeter=0;" parent="SoTEVqlD-ZGMPwPlBJG8-1" source="N_ucVqVdbEi61Vxu9FL0-1" target="N_ucVqVdbEi61Vxu9FL0-10" edge="1">
          <mxGeometry width="50" height="50" relative="1" as="geometry">
            <mxPoint x="560" y="466.0000000000001" as="sourcePoint" />
            <mxPoint x="680" y="466" as="targetPoint" />
          </mxGeometry>
        </mxCell>
        <mxCell id="N_ucVqVdbEi61Vxu9FL0-13" value="Open" style="text;html=1;align=center;verticalAlign=middle;resizable=0;points=[];autosize=1;strokeColor=none;fillColor=none;fontSize=9;" parent="SoTEVqlD-ZGMPwPlBJG8-1" vertex="1">
          <mxGeometry x="595" y="446" width="40" height="20" as="geometry" />
        </mxCell>
        <mxCell id="N_ucVqVdbEi61Vxu9FL0-14" value="" style="endArrow=block;html=1;rounded=0;fontSize=10;endFill=1;entryX=0.437;entryY=1.005;entryDx=0;entryDy=0;entryPerimeter=0;exitX=0.721;exitY=-0.001;exitDx=0;exitDy=0;exitPerimeter=0;" parent="SoTEVqlD-ZGMPwPlBJG8-1" source="SoTEVqlD-ZGMPwPlBJG8-26" target="N_ucVqVdbEi61Vxu9FL0-10" edge="1">
          <mxGeometry width="50" height="50" relative="1" as="geometry">
            <mxPoint x="78.62068965517241" y="496" as="sourcePoint" />
            <mxPoint x="680" y="496.9999999999999" as="targetPoint" />
          </mxGeometry>
        </mxCell>
        <mxCell id="N_ucVqVdbEi61Vxu9FL0-15" value="Select file" style="text;html=1;align=center;verticalAlign=middle;resizable=0;points=[];autosize=1;strokeColor=none;fillColor=none;fontSize=9;" parent="SoTEVqlD-ZGMPwPlBJG8-1" vertex="1">
          <mxGeometry x="351.5" y="476" width="50" height="20" as="geometry" />
        </mxCell>
        <mxCell id="N_ucVqVdbEi61Vxu9FL0-16" value="" style="rounded=0;whiteSpace=wrap;html=1;rotation=90;" parent="SoTEVqlD-ZGMPwPlBJG8-1" vertex="1">
          <mxGeometry x="500.85" y="575.05" width="86.27" height="10" as="geometry" />
        </mxCell>
        <mxCell id="N_ucVqVdbEi61Vxu9FL0-17" value="" style="shape=umlDestroy;whiteSpace=wrap;html=1;strokeWidth=3;fontSize=9;" parent="SoTEVqlD-ZGMPwPlBJG8-1" vertex="1">
          <mxGeometry x="682.51" y="556" width="15.01" height="16" as="geometry" />
        </mxCell>
        <mxCell id="N_ucVqVdbEi61Vxu9FL0-19" style="rounded=0;orthogonalLoop=1;jettySize=auto;html=1;fontSize=10;endArrow=open;endFill=0;dashed=1;exitX=0.971;exitY=1.028;exitDx=0;exitDy=0;exitPerimeter=0;entryX=0;entryY=0;entryDx=0;entryDy=0;" parent="SoTEVqlD-ZGMPwPlBJG8-1" source="N_ucVqVdbEi61Vxu9FL0-10" target="N_ucVqVdbEi61Vxu9FL0-16" edge="1">
          <mxGeometry relative="1" as="geometry">
            <mxPoint x="682.51" y="536" as="sourcePoint" />
            <mxPoint x="553.01" y="536" as="targetPoint" />
            <Array as="points">
              <mxPoint x="623.01" y="536" />
            </Array>
          </mxGeometry>
        </mxCell>
        <mxCell id="N_ucVqVdbEi61Vxu9FL0-20" value="File for loading" style="text;html=1;align=center;verticalAlign=middle;resizable=0;points=[];autosize=1;strokeColor=none;fillColor=none;fontSize=9;" parent="SoTEVqlD-ZGMPwPlBJG8-1" vertex="1">
          <mxGeometry x="580" y="516" width="70" height="20" as="geometry" />
        </mxCell>
        <mxCell id="N_ucVqVdbEi61Vxu9FL0-22" style="edgeStyle=orthogonalEdgeStyle;rounded=0;orthogonalLoop=1;jettySize=auto;html=1;exitX=0.25;exitY=0;exitDx=0;exitDy=0;entryX=0.785;entryY=0.023;entryDx=0;entryDy=0;entryPerimeter=0;fontSize=9;endArrow=block;endFill=1;curved=1;" parent="SoTEVqlD-ZGMPwPlBJG8-1" source="SoTEVqlD-ZGMPwPlBJG8-7" target="SoTEVqlD-ZGMPwPlBJG8-7" edge="1">
          <mxGeometry relative="1" as="geometry" />
        </mxCell>
        <mxCell id="N_ucVqVdbEi61Vxu9FL0-23" style="rounded=0;orthogonalLoop=1;jettySize=auto;html=1;fontSize=10;endArrow=open;endFill=0;dashed=1;entryX=0.813;entryY=-0.002;entryDx=0;entryDy=0;entryPerimeter=0;" parent="SoTEVqlD-ZGMPwPlBJG8-1" target="SoTEVqlD-ZGMPwPlBJG8-26" edge="1">
          <mxGeometry relative="1" as="geometry">
            <mxPoint x="535" y="546" as="sourcePoint" />
            <mxPoint x="80" y="546" as="targetPoint" />
            <Array as="points">
              <mxPoint x="471.5" y="546" />
            </Array>
          </mxGeometry>
        </mxCell>
        <mxCell id="N_ucVqVdbEi61Vxu9FL0-24" value="Submission Parameters Request" style="text;html=1;align=center;verticalAlign=middle;resizable=0;points=[];autosize=1;strokeColor=none;fillColor=none;fontSize=9;" parent="SoTEVqlD-ZGMPwPlBJG8-1" vertex="1">
          <mxGeometry x="224.95999999999998" y="526" width="150" height="20" as="geometry" />
        </mxCell>
        <mxCell id="N_ucVqVdbEi61Vxu9FL0-25" value="" style="endArrow=block;html=1;rounded=0;fontSize=10;endFill=1;exitX=0.863;exitY=0.002;exitDx=0;exitDy=0;exitPerimeter=0;" parent="SoTEVqlD-ZGMPwPlBJG8-1" source="SoTEVqlD-ZGMPwPlBJG8-26" edge="1">
          <mxGeometry width="50" height="50" relative="1" as="geometry">
            <mxPoint x="80" y="573" as="sourcePoint" />
            <mxPoint x="535" y="570" as="targetPoint" />
          </mxGeometry>
        </mxCell>
        <mxCell id="N_ucVqVdbEi61Vxu9FL0-26" value="Submission Parameters" style="text;html=1;align=center;verticalAlign=middle;resizable=0;points=[];autosize=1;strokeColor=none;fillColor=none;fontSize=9;" parent="SoTEVqlD-ZGMPwPlBJG8-1" vertex="1">
          <mxGeometry x="244.95999999999998" y="554" width="110" height="20" as="geometry" />
        </mxCell>
        <mxCell id="N_ucVqVdbEi61Vxu9FL0-27" value="" style="endArrow=block;html=1;rounded=0;fontSize=10;endFill=1;exitX=0.914;exitY=0.001;exitDx=0;exitDy=0;exitPerimeter=0;" parent="SoTEVqlD-ZGMPwPlBJG8-1" source="SoTEVqlD-ZGMPwPlBJG8-26" edge="1">
          <mxGeometry width="50" height="50" relative="1" as="geometry">
            <mxPoint x="80" y="600.96" as="sourcePoint" />
            <mxPoint x="535" y="600" as="targetPoint" />
          </mxGeometry>
        </mxCell>
        <mxCell id="N_ucVqVdbEi61Vxu9FL0-28" value="Submission Confirmation" style="text;html=1;align=center;verticalAlign=middle;resizable=0;points=[];autosize=1;strokeColor=none;fillColor=none;fontSize=9;" parent="SoTEVqlD-ZGMPwPlBJG8-1" vertex="1">
          <mxGeometry x="239.95999999999998" y="581.96" width="120" height="20" as="geometry" />
        </mxCell>
        <mxCell id="N_ucVqVdbEi61Vxu9FL0-30" style="rounded=0;orthogonalLoop=1;jettySize=auto;html=1;fontSize=10;endArrow=open;endFill=0;dashed=1;entryX=0;entryY=0;entryDx=0;entryDy=0;exitX=1;exitY=1;exitDx=0;exitDy=0;" parent="SoTEVqlD-ZGMPwPlBJG8-1" source="N_ucVqVdbEi61Vxu9FL0-16" target="N_ucVqVdbEi61Vxu9FL0-29" edge="1">
          <mxGeometry relative="1" as="geometry">
            <mxPoint x="531.49" y="621.96" as="sourcePoint" />
            <mxPoint x="221.51" y="621.575" as="targetPoint" />
          </mxGeometry>
        </mxCell>
        <mxCell id="N_ucVqVdbEi61Vxu9FL0-31" value="UC Contents" style="text;html=1;align=center;verticalAlign=middle;resizable=0;points=[];autosize=1;strokeColor=none;fillColor=none;fontSize=9;" parent="SoTEVqlD-ZGMPwPlBJG8-1" vertex="1">
          <mxGeometry x="347.99" y="601.96" width="70" height="20" as="geometry" />
        </mxCell>
        <mxCell id="ikcuMpc73vVYGdVoaQ8v-1" style="rounded=0;orthogonalLoop=1;jettySize=auto;html=1;exitX=1;exitY=1;exitDx=0;exitDy=0;entryX=1;entryY=0;entryDx=0;entryDy=0;dashed=1;labelBackgroundColor=none;fontSize=9;endArrow=open;endFill=0;" parent="SoTEVqlD-ZGMPwPlBJG8-1" source="N_ucVqVdbEi61Vxu9FL0-29" target="SoTEVqlD-ZGMPwPlBJG8-26" edge="1">
          <mxGeometry relative="1" as="geometry" />
        </mxCell>
        <mxCell id="N_ucVqVdbEi61Vxu9FL0-29" value="" style="rounded=0;whiteSpace=wrap;html=1;rotation=90;" parent="SoTEVqlD-ZGMPwPlBJG8-1" vertex="1">
          <mxGeometry x="201.64" y="623.61" width="16.71" height="10" as="geometry" />
        </mxCell>
        <mxCell id="N_ucVqVdbEi61Vxu9FL0-33" style="edgeStyle=none;rounded=0;orthogonalLoop=1;jettySize=auto;html=1;exitX=1;exitY=0.5;exitDx=0;exitDy=0;dashed=1;fontSize=9;endArrow=none;endFill=0;" parent="1" source="N_ucVqVdbEi61Vxu9FL0-16" edge="1">
          <mxGeometry relative="1" as="geometry">
            <mxPoint x="569" y="720" as="targetPoint" />
          </mxGeometry>
        </mxCell>
        <mxCell id="N_ucVqVdbEi61Vxu9FL0-34" style="edgeStyle=none;rounded=0;orthogonalLoop=1;jettySize=auto;html=1;exitX=1;exitY=0.5;exitDx=0;exitDy=0;dashed=1;fontSize=9;endArrow=none;endFill=0;" parent="1" source="SoTEVqlD-ZGMPwPlBJG8-26" edge="1">
          <mxGeometry relative="1" as="geometry">
            <mxPoint x="88" y="720" as="targetPoint" />
          </mxGeometry>
        </mxCell>
        <mxCell id="N_ucVqVdbEi61Vxu9FL0-35" style="edgeStyle=none;rounded=0;orthogonalLoop=1;jettySize=auto;html=1;exitX=1;exitY=0.5;exitDx=0;exitDy=0;dashed=1;fontSize=9;endArrow=none;endFill=0;" parent="1" source="N_ucVqVdbEi61Vxu9FL0-29" edge="1">
          <mxGeometry relative="1" as="geometry">
            <mxPoint x="235" y="720" as="targetPoint" />
          </mxGeometry>
        </mxCell>
        <mxCell id="N_ucVqVdbEi61Vxu9FL0-36" value="AS-EX 4.2&lt;br&gt;Grupo 601 (DF, DC, ST, FC)&lt;br&gt;v2022/03/30" style="shape=note2;boundedLbl=1;whiteSpace=wrap;html=1;size=11;verticalAlign=top;align=left;fontSize=9;fillColor=#dae8fc;strokeColor=#6c8ebf;" parent="1" vertex="1">
          <mxGeometry x="25" y="750" width="125" height="50" as="geometry" />
        </mxCell>
      </root>
    </mxGraphModel>
  </diagram>
  <diagram id="L5uJk-dwBL03DwltUghx" name="4.4 Cache State Machine">
    <mxGraphModel dx="2272" dy="758" grid="1" gridSize="10" guides="0" tooltips="1" connect="1" arrows="1" fold="1" page="1" pageScale="1" pageWidth="850" pageHeight="1100" math="0" shadow="0">
      <root>
        <mxCell id="AHBp3_VRvHWnM_W1ek0z-0" />
        <mxCell id="AHBp3_VRvHWnM_W1ek0z-1" parent="AHBp3_VRvHWnM_W1ek0z-0" />
        <mxCell id="AHBp3_VRvHWnM_W1ek0z-9" style="edgeStyle=orthogonalEdgeStyle;rounded=0;orthogonalLoop=1;jettySize=auto;html=1;exitX=1;exitY=0.5;exitDx=0;exitDy=0;curved=1;startArrow=none;" parent="AHBp3_VRvHWnM_W1ek0z-1" source="AHBp3_VRvHWnM_W1ek0z-20" target="AHBp3_VRvHWnM_W1ek0z-3" edge="1">
          <mxGeometry relative="1" as="geometry" />
        </mxCell>
        <mxCell id="06BxQjRZ9kkwflxCcMQA-0" style="edgeStyle=orthogonalEdgeStyle;curved=1;rounded=0;orthogonalLoop=1;jettySize=auto;html=1;exitX=0.75;exitY=0;exitDx=0;exitDy=0;endArrow=classic;endFill=1;entryX=0.5;entryY=0;entryDx=0;entryDy=0;startArrow=none;" parent="AHBp3_VRvHWnM_W1ek0z-1" source="06BxQjRZ9kkwflxCcMQA-1" target="AHBp3_VRvHWnM_W1ek0z-2" edge="1">
          <mxGeometry relative="1" as="geometry">
            <mxPoint x="-700" y="100" as="targetPoint" />
            <Array as="points">
              <mxPoint x="-735" y="70" />
              <mxPoint x="-670" y="70" />
            </Array>
          </mxGeometry>
        </mxCell>
        <mxCell id="AHBp3_VRvHWnM_W1ek0z-2" value="" style="shape=ellipse;html=1;fillColor=#000000;fontSize=18;fontColor=#ffffff;" parent="AHBp3_VRvHWnM_W1ek0z-1" vertex="1">
          <mxGeometry x="-690" y="120" width="40" height="40" as="geometry" />
        </mxCell>
        <mxCell id="06BxQjRZ9kkwflxCcMQA-16" style="edgeStyle=orthogonalEdgeStyle;curved=1;rounded=0;orthogonalLoop=1;jettySize=auto;html=1;exitX=1;exitY=0.5;exitDx=0;exitDy=0;entryX=0;entryY=0.5;entryDx=0;entryDy=0;endArrow=classic;endFill=1;" parent="AHBp3_VRvHWnM_W1ek0z-1" source="AHBp3_VRvHWnM_W1ek0z-3" target="AHBp3_VRvHWnM_W1ek0z-4" edge="1">
          <mxGeometry relative="1" as="geometry" />
        </mxCell>
        <mxCell id="AHBp3_VRvHWnM_W1ek0z-3" value="New" style="rounded=1;whiteSpace=wrap;html=1;" parent="AHBp3_VRvHWnM_W1ek0z-1" vertex="1">
          <mxGeometry x="-470" y="110" width="120" height="60" as="geometry" />
        </mxCell>
        <mxCell id="k6s4VyVISrtGLycESjMs-0" style="edgeStyle=orthogonalEdgeStyle;rounded=0;orthogonalLoop=1;jettySize=auto;html=1;exitX=0;exitY=1;exitDx=0;exitDy=0;entryX=0;entryY=0;entryDx=0;entryDy=0;" parent="AHBp3_VRvHWnM_W1ek0z-1" source="AHBp3_VRvHWnM_W1ek0z-4" target="AHBp3_VRvHWnM_W1ek0z-11" edge="1">
          <mxGeometry relative="1" as="geometry" />
        </mxCell>
        <mxCell id="AHBp3_VRvHWnM_W1ek0z-4" value="Update" style="rounded=1;whiteSpace=wrap;html=1;" parent="AHBp3_VRvHWnM_W1ek0z-1" vertex="1">
          <mxGeometry x="-270" y="110" width="120" height="60" as="geometry" />
        </mxCell>
        <mxCell id="y_P79an39P2iDRL1Kxiw-2" style="edgeStyle=orthogonalEdgeStyle;rounded=0;orthogonalLoop=1;jettySize=auto;html=1;exitX=0.5;exitY=1;exitDx=0;exitDy=0;entryX=0;entryY=0.5;entryDx=0;entryDy=0;" parent="AHBp3_VRvHWnM_W1ek0z-1" source="AHBp3_VRvHWnM_W1ek0z-5" target="AHBp3_VRvHWnM_W1ek0z-11" edge="1">
          <mxGeometry relative="1" as="geometry">
            <Array as="points">
              <mxPoint x="-410" y="610" />
              <mxPoint x="-520" y="610" />
              <mxPoint x="-520" y="350" />
            </Array>
          </mxGeometry>
        </mxCell>
        <mxCell id="AHBp3_VRvHWnM_W1ek0z-5" value="Remove" style="rounded=1;whiteSpace=wrap;html=1;" parent="AHBp3_VRvHWnM_W1ek0z-1" vertex="1">
          <mxGeometry x="-470" y="530" width="120" height="60" as="geometry" />
        </mxCell>
        <mxCell id="y_P79an39P2iDRL1Kxiw-0" style="edgeStyle=orthogonalEdgeStyle;rounded=0;orthogonalLoop=1;jettySize=auto;html=1;exitX=0.5;exitY=1;exitDx=0;exitDy=0;entryX=1;entryY=0.5;entryDx=0;entryDy=0;" parent="AHBp3_VRvHWnM_W1ek0z-1" source="AHBp3_VRvHWnM_W1ek0z-6" target="AHBp3_VRvHWnM_W1ek0z-11" edge="1">
          <mxGeometry relative="1" as="geometry">
            <Array as="points">
              <mxPoint x="-210" y="630" />
              <mxPoint x="140" y="630" />
              <mxPoint x="140" y="350" />
            </Array>
          </mxGeometry>
        </mxCell>
        <mxCell id="AHBp3_VRvHWnM_W1ek0z-6" value="Dirty" style="rounded=1;whiteSpace=wrap;html=1;" parent="AHBp3_VRvHWnM_W1ek0z-1" vertex="1">
          <mxGeometry x="-270" y="530" width="120" height="60" as="geometry" />
        </mxCell>
        <mxCell id="y_P79an39P2iDRL1Kxiw-1" style="edgeStyle=orthogonalEdgeStyle;rounded=0;orthogonalLoop=1;jettySize=auto;html=1;exitX=0.5;exitY=1;exitDx=0;exitDy=0;entryX=1;entryY=0.75;entryDx=0;entryDy=0;" parent="AHBp3_VRvHWnM_W1ek0z-1" source="AHBp3_VRvHWnM_W1ek0z-7" target="AHBp3_VRvHWnM_W1ek0z-11" edge="1">
          <mxGeometry relative="1" as="geometry">
            <Array as="points">
              <mxPoint x="-10" y="615" />
              <mxPoint x="120" y="615" />
              <mxPoint x="120" y="365" />
            </Array>
          </mxGeometry>
        </mxCell>
        <mxCell id="AHBp3_VRvHWnM_W1ek0z-7" value="Miss" style="rounded=1;whiteSpace=wrap;html=1;" parent="AHBp3_VRvHWnM_W1ek0z-1" vertex="1">
          <mxGeometry x="-70" y="535" width="120" height="60" as="geometry" />
        </mxCell>
        <mxCell id="k6s4VyVISrtGLycESjMs-1" style="edgeStyle=orthogonalEdgeStyle;rounded=0;orthogonalLoop=1;jettySize=auto;html=1;exitX=0.5;exitY=0;exitDx=0;exitDy=0;entryX=1;entryY=1;entryDx=0;entryDy=0;startArrow=none;" parent="AHBp3_VRvHWnM_W1ek0z-1" source="06BxQjRZ9kkwflxCcMQA-9" target="AHBp3_VRvHWnM_W1ek0z-4" edge="1">
          <mxGeometry relative="1" as="geometry">
            <Array as="points" />
          </mxGeometry>
        </mxCell>
        <mxCell id="k6s4VyVISrtGLycESjMs-3" style="edgeStyle=orthogonalEdgeStyle;rounded=0;orthogonalLoop=1;jettySize=auto;html=1;exitX=0.5;exitY=1;exitDx=0;exitDy=0;entryX=0.5;entryY=0;entryDx=0;entryDy=0;startArrow=none;" parent="AHBp3_VRvHWnM_W1ek0z-1" source="06BxQjRZ9kkwflxCcMQA-15" target="AHBp3_VRvHWnM_W1ek0z-6" edge="1">
          <mxGeometry relative="1" as="geometry" />
        </mxCell>
        <mxCell id="k6s4VyVISrtGLycESjMs-5" style="edgeStyle=orthogonalEdgeStyle;rounded=0;orthogonalLoop=1;jettySize=auto;html=1;entryX=0.75;entryY=0;entryDx=0;entryDy=0;startArrow=none;exitX=0.5;exitY=1;exitDx=0;exitDy=0;" parent="AHBp3_VRvHWnM_W1ek0z-1" source="06BxQjRZ9kkwflxCcMQA-14" target="AHBp3_VRvHWnM_W1ek0z-5" edge="1">
          <mxGeometry relative="1" as="geometry">
            <mxPoint x="-380" y="450" as="sourcePoint" />
            <Array as="points" />
          </mxGeometry>
        </mxCell>
        <mxCell id="k6s4VyVISrtGLycESjMs-7" style="edgeStyle=orthogonalEdgeStyle;rounded=0;orthogonalLoop=1;jettySize=auto;html=1;exitX=0.5;exitY=1;exitDx=0;exitDy=0;entryX=0.25;entryY=0;entryDx=0;entryDy=0;startArrow=none;" parent="AHBp3_VRvHWnM_W1ek0z-1" source="06BxQjRZ9kkwflxCcMQA-10" target="AHBp3_VRvHWnM_W1ek0z-7" edge="1">
          <mxGeometry relative="1" as="geometry">
            <Array as="points">
              <mxPoint x="-40" y="470" />
            </Array>
          </mxGeometry>
        </mxCell>
        <mxCell id="YTNwAkYKa0FokTYdCtYo-0" style="edgeStyle=orthogonalEdgeStyle;rounded=0;orthogonalLoop=1;jettySize=auto;html=1;entryX=0.5;entryY=1;entryDx=0;entryDy=0;startArrow=none;" parent="AHBp3_VRvHWnM_W1ek0z-1" source="YTNwAkYKa0FokTYdCtYo-1" target="AHBp3_VRvHWnM_W1ek0z-3" edge="1">
          <mxGeometry relative="1" as="geometry">
            <mxPoint x="-410" y="200" as="sourcePoint" />
            <Array as="points">
              <mxPoint x="-410" y="210" />
              <mxPoint x="-410" y="210" />
            </Array>
          </mxGeometry>
        </mxCell>
        <mxCell id="AHBp3_VRvHWnM_W1ek0z-11" value="Idle" style="rounded=1;whiteSpace=wrap;html=1;" parent="AHBp3_VRvHWnM_W1ek0z-1" vertex="1">
          <mxGeometry x="-270" y="320" width="120" height="60" as="geometry" />
        </mxCell>
        <mxCell id="06BxQjRZ9kkwflxCcMQA-1" value="Put[Valid] =&amp;nbsp; 0" style="text;html=1;strokeColor=none;fillColor=none;align=center;verticalAlign=middle;whiteSpace=wrap;rounded=0;" parent="AHBp3_VRvHWnM_W1ek0z-1" vertex="1">
          <mxGeometry x="-780" y="90" width="60" height="30" as="geometry" />
        </mxCell>
        <mxCell id="06BxQjRZ9kkwflxCcMQA-7" value="" style="edgeStyle=orthogonalEdgeStyle;curved=1;rounded=0;orthogonalLoop=1;jettySize=auto;html=1;exitX=0;exitY=0.5;exitDx=0;exitDy=0;endArrow=none;endFill=1;entryX=0.5;entryY=1;entryDx=0;entryDy=0;" parent="AHBp3_VRvHWnM_W1ek0z-1" source="AHBp3_VRvHWnM_W1ek0z-2" target="06BxQjRZ9kkwflxCcMQA-1" edge="1">
          <mxGeometry relative="1" as="geometry">
            <mxPoint x="-750" y="140" as="targetPoint" />
            <mxPoint x="-690" y="140" as="sourcePoint" />
            <Array as="points">
              <mxPoint x="-750" y="140" />
            </Array>
          </mxGeometry>
        </mxCell>
        <mxCell id="AHBp3_VRvHWnM_W1ek0z-20" value="Put[Valid] = 1&lt;br&gt;Put[Existing] = 0" style="text;html=1;strokeColor=none;fillColor=none;align=center;verticalAlign=middle;whiteSpace=wrap;rounded=0;" parent="AHBp3_VRvHWnM_W1ek0z-1" vertex="1">
          <mxGeometry x="-620" y="125" width="60" height="30" as="geometry" />
        </mxCell>
        <mxCell id="06BxQjRZ9kkwflxCcMQA-8" value="" style="edgeStyle=orthogonalEdgeStyle;rounded=0;orthogonalLoop=1;jettySize=auto;html=1;exitX=1;exitY=0.5;exitDx=0;exitDy=0;curved=1;endArrow=none;" parent="AHBp3_VRvHWnM_W1ek0z-1" source="AHBp3_VRvHWnM_W1ek0z-2" target="AHBp3_VRvHWnM_W1ek0z-20" edge="1">
          <mxGeometry relative="1" as="geometry">
            <mxPoint x="-650" y="140" as="sourcePoint" />
            <mxPoint x="-470" y="140" as="targetPoint" />
          </mxGeometry>
        </mxCell>
        <mxCell id="06BxQjRZ9kkwflxCcMQA-13" value="1 = True&lt;br&gt;0 = False" style="text;html=1;strokeColor=none;fillColor=none;align=center;verticalAlign=middle;whiteSpace=wrap;rounded=0;" parent="AHBp3_VRvHWnM_W1ek0z-1" vertex="1">
          <mxGeometry x="-750" y="320" width="60" height="30" as="geometry" />
        </mxCell>
        <mxCell id="06BxQjRZ9kkwflxCcMQA-9" value="Put[Existing] = 1&lt;br&gt;Put[Valid] =&amp;nbsp; 1" style="text;html=1;strokeColor=none;fillColor=none;align=center;verticalAlign=middle;whiteSpace=wrap;rounded=0;" parent="AHBp3_VRvHWnM_W1ek0z-1" vertex="1">
          <mxGeometry x="-200" y="230" width="100" height="30" as="geometry" />
        </mxCell>
        <mxCell id="k6s4VyVISrtGLycESjMs-2" value="" style="edgeStyle=orthogonalEdgeStyle;rounded=0;orthogonalLoop=1;jettySize=auto;html=1;exitX=1;exitY=0;exitDx=0;exitDy=0;endArrow=none;" parent="AHBp3_VRvHWnM_W1ek0z-1" source="AHBp3_VRvHWnM_W1ek0z-11" edge="1">
          <mxGeometry relative="1" as="geometry">
            <mxPoint x="-150" y="320" as="sourcePoint" />
            <mxPoint x="-150" y="260" as="targetPoint" />
            <Array as="points">
              <mxPoint x="-150" y="260" />
            </Array>
          </mxGeometry>
        </mxCell>
        <mxCell id="06BxQjRZ9kkwflxCcMQA-15" value="TTL[spent] = 1" style="text;html=1;strokeColor=none;fillColor=none;align=center;verticalAlign=middle;whiteSpace=wrap;rounded=0;" parent="AHBp3_VRvHWnM_W1ek0z-1" vertex="1">
          <mxGeometry x="-252" y="440" width="85" height="30" as="geometry" />
        </mxCell>
        <mxCell id="k6s4VyVISrtGLycESjMs-4" value="" style="edgeStyle=orthogonalEdgeStyle;rounded=0;orthogonalLoop=1;jettySize=auto;html=1;exitX=0.5;exitY=1;exitDx=0;exitDy=0;entryX=0.5;entryY=0;entryDx=0;entryDy=0;endArrow=none;" parent="AHBp3_VRvHWnM_W1ek0z-1" source="AHBp3_VRvHWnM_W1ek0z-11" target="06BxQjRZ9kkwflxCcMQA-15" edge="1">
          <mxGeometry relative="1" as="geometry">
            <mxPoint x="-210" y="380" as="sourcePoint" />
            <mxPoint x="-210" y="530" as="targetPoint" />
          </mxGeometry>
        </mxCell>
        <mxCell id="06BxQjRZ9kkwflxCcMQA-14" value="(Re-eval = 1 ||&lt;br&gt;Get[Existing] = 1) &amp;amp;&amp;amp; &quot;Dirty&quot;" style="text;html=1;strokeColor=none;fillColor=none;align=center;verticalAlign=middle;whiteSpace=wrap;rounded=0;" parent="AHBp3_VRvHWnM_W1ek0z-1" vertex="1">
          <mxGeometry x="-450" y="415" width="115" height="55" as="geometry" />
        </mxCell>
        <mxCell id="k6s4VyVISrtGLycESjMs-6" value="" style="edgeStyle=orthogonalEdgeStyle;rounded=0;orthogonalLoop=1;jettySize=auto;html=1;exitX=0;exitY=1;exitDx=0;exitDy=0;entryX=0.5;entryY=0;entryDx=0;entryDy=0;endArrow=none;" parent="AHBp3_VRvHWnM_W1ek0z-1" source="AHBp3_VRvHWnM_W1ek0z-11" target="06BxQjRZ9kkwflxCcMQA-14" edge="1">
          <mxGeometry relative="1" as="geometry">
            <mxPoint x="-270" y="380" as="sourcePoint" />
            <mxPoint x="-380" y="530" as="targetPoint" />
            <Array as="points">
              <mxPoint x="-270" y="400" />
              <mxPoint x="-392" y="400" />
            </Array>
          </mxGeometry>
        </mxCell>
        <mxCell id="06BxQjRZ9kkwflxCcMQA-10" value="GET[Existing] = 0" style="text;html=1;strokeColor=none;fillColor=none;align=center;verticalAlign=middle;whiteSpace=wrap;rounded=0;" parent="AHBp3_VRvHWnM_W1ek0z-1" vertex="1">
          <mxGeometry x="-100" y="440" width="110" height="30" as="geometry" />
        </mxCell>
        <mxCell id="k6s4VyVISrtGLycESjMs-8" value="" style="edgeStyle=orthogonalEdgeStyle;rounded=0;orthogonalLoop=1;jettySize=auto;html=1;exitX=1;exitY=1;exitDx=0;exitDy=0;entryX=0.5;entryY=0;entryDx=0;entryDy=0;endArrow=none;" parent="AHBp3_VRvHWnM_W1ek0z-1" source="AHBp3_VRvHWnM_W1ek0z-11" target="06BxQjRZ9kkwflxCcMQA-10" edge="1">
          <mxGeometry relative="1" as="geometry">
            <mxPoint x="-150" y="380" as="sourcePoint" />
            <mxPoint x="-40" y="535" as="targetPoint" />
            <Array as="points" />
          </mxGeometry>
        </mxCell>
        <mxCell id="tN2dU9eM2kF2ws9q4VVo-0" value="AS-EX 4.4&lt;br&gt;Grupo 601 (DF, DC, ST, FC)&lt;br&gt;v2022/03/30" style="shape=note2;boundedLbl=1;whiteSpace=wrap;html=1;size=11;verticalAlign=top;align=left;fontSize=9;fillColor=#dae8fc;strokeColor=#6c8ebf;" parent="AHBp3_VRvHWnM_W1ek0z-1" vertex="1">
          <mxGeometry x="-750" y="535" width="125" height="50" as="geometry" />
        </mxCell>
        <mxCell id="YTNwAkYKa0FokTYdCtYo-1" value="Put[Valid] = 1&lt;br&gt;Put[Existing] = 0" style="text;html=1;strokeColor=none;fillColor=none;align=center;verticalAlign=middle;whiteSpace=wrap;rounded=0;" parent="AHBp3_VRvHWnM_W1ek0z-1" vertex="1">
          <mxGeometry x="-470" y="230" width="90" height="30" as="geometry" />
        </mxCell>
        <mxCell id="YTNwAkYKa0FokTYdCtYo-2" value="" style="edgeStyle=orthogonalEdgeStyle;rounded=0;orthogonalLoop=1;jettySize=auto;html=1;exitX=0;exitY=0.25;exitDx=0;exitDy=0;endArrow=none;entryX=0.678;entryY=1.133;entryDx=0;entryDy=0;entryPerimeter=0;" parent="AHBp3_VRvHWnM_W1ek0z-1" source="AHBp3_VRvHWnM_W1ek0z-11" target="YTNwAkYKa0FokTYdCtYo-1" edge="1">
          <mxGeometry relative="1" as="geometry">
            <mxPoint x="-270" y="335" as="sourcePoint" />
            <mxPoint x="-410" y="280" as="targetPoint" />
          </mxGeometry>
        </mxCell>
      </root>
    </mxGraphModel>
  </diagram>
  <diagram id="J4kpZpN4KWZWXniGxYUH" name="4.3a)">
    <mxGraphModel dx="1422" dy="1863" grid="1" gridSize="10" guides="1" tooltips="1" connect="1" arrows="1" fold="1" page="1" pageScale="1" pageWidth="827" pageHeight="1169" math="0" shadow="0">
      <root>
        <mxCell id="euifeGbPDPr2ujzqLKZH-0" />
        <mxCell id="euifeGbPDPr2ujzqLKZH-1" parent="euifeGbPDPr2ujzqLKZH-0" />
        <mxCell id="euifeGbPDPr2ujzqLKZH-2" value="getAirQualityOfTodayFromCoordinates" style="swimlane;" parent="euifeGbPDPr2ujzqLKZH-1" vertex="1">
          <mxGeometry x="38.29" y="-1130" width="690" height="660" as="geometry" />
        </mxCell>
        <mxCell id="euifeGbPDPr2ujzqLKZH-3" value="getCoordinatesFromAddress" style="edgeLabel;html=1;align=center;verticalAlign=middle;resizable=0;points=[];fontSize=9;labelBackgroundColor=none;" parent="euifeGbPDPr2ujzqLKZH-2" connectable="0" vertex="1">
          <mxGeometry x="291.7180808250702" y="239.99853708042156" as="geometry">
            <mxPoint x="-2" as="offset" />
          </mxGeometry>
        </mxCell>
        <mxCell id="euifeGbPDPr2ujzqLKZH-4" value="(information present on cache)" style="edgeLabel;html=1;align=center;verticalAlign=middle;resizable=0;points=[];fontSize=9;labelBackgroundColor=none;" parent="euifeGbPDPr2ujzqLKZH-2" connectable="0" vertex="1">
          <mxGeometry x="441.9980808250702" y="414.99853708042156" as="geometry" />
        </mxCell>
        <mxCell id="euifeGbPDPr2ujzqLKZH-5" value="Response_entity:Address Not Found" style="edgeLabel;html=1;align=center;verticalAlign=middle;resizable=0;points=[];fontSize=9;labelBackgroundColor=none;" parent="euifeGbPDPr2ujzqLKZH-2" connectable="0" vertex="1">
          <mxGeometry x="199.9980808250702" y="499.99853708042156" as="geometry" />
        </mxCell>
        <mxCell id="euifeGbPDPr2ujzqLKZH-6" value="HTTP_status: Not Found&amp;nbsp;" style="edgeLabel;html=1;align=center;verticalAlign=middle;resizable=0;points=[];fontSize=9;labelBackgroundColor=none;" parent="euifeGbPDPr2ujzqLKZH-2" connectable="0" vertex="1">
          <mxGeometry x="199.9980808250702" y="519.9985370804216" as="geometry">
            <mxPoint x="-1" y="-1" as="offset" />
          </mxGeometry>
        </mxCell>
        <mxCell id="euifeGbPDPr2ujzqLKZH-7" value="getRequestFromCache" style="edgeLabel;html=1;align=center;verticalAlign=middle;resizable=0;points=[];fontSize=9;labelBackgroundColor=none;" parent="euifeGbPDPr2ujzqLKZH-2" connectable="0" vertex="1">
          <mxGeometry x="129.9980808250702" y="169.99853708042156" as="geometry" />
        </mxCell>
        <mxCell id="euifeGbPDPr2ujzqLKZH-8" value="Response_entity:Air Quality" style="edgeLabel;html=1;align=center;verticalAlign=middle;resizable=0;points=[];fontSize=9;labelBackgroundColor=none;" parent="euifeGbPDPr2ujzqLKZH-2" connectable="0" vertex="1">
          <mxGeometry x="339.9980808250702" y="579.9985370804216" as="geometry" />
        </mxCell>
        <mxCell id="euifeGbPDPr2ujzqLKZH-9" value="HTTP_status: OK" style="edgeLabel;html=1;align=center;verticalAlign=middle;resizable=0;points=[];fontSize=9;labelBackgroundColor=none;" parent="euifeGbPDPr2ujzqLKZH-2" connectable="0" vertex="1">
          <mxGeometry x="339.9980808250702" y="599.9985370804216" as="geometry" />
        </mxCell>
        <mxCell id="euifeGbPDPr2ujzqLKZH-10" value="" style="rounded=0;whiteSpace=wrap;html=1;rotation=90;" parent="euifeGbPDPr2ujzqLKZH-1" vertex="1">
          <mxGeometry x="-150" y="-750" width="480.01" height="10" as="geometry" />
        </mxCell>
        <mxCell id="euifeGbPDPr2ujzqLKZH-11" value="" style="rounded=0;whiteSpace=wrap;html=1;rotation=90;" parent="euifeGbPDPr2ujzqLKZH-1" vertex="1">
          <mxGeometry x="313.29" y="-899" width="190" height="10" as="geometry" />
        </mxCell>
        <mxCell id="euifeGbPDPr2ujzqLKZH-12" value="" style="rounded=0;whiteSpace=wrap;html=1;rotation=90;" parent="euifeGbPDPr2ujzqLKZH-1" vertex="1">
          <mxGeometry x="110" y="-851.71" width="280" height="10" as="geometry" />
        </mxCell>
        <mxCell id="euifeGbPDPr2ujzqLKZH-13" value="" style="rounded=0;whiteSpace=wrap;html=1;rotation=90;" parent="euifeGbPDPr2ujzqLKZH-1" vertex="1">
          <mxGeometry x="475.79" y="-692.5" width="335" height="10" as="geometry" />
        </mxCell>
        <mxCell id="euifeGbPDPr2ujzqLKZH-14" value="geoCodingService" style="rounded=0;whiteSpace=wrap;html=1;" parent="euifeGbPDPr2ujzqLKZH-1" vertex="1">
          <mxGeometry x="358.29" y="-1080" width="100" height="40" as="geometry" />
        </mxCell>
        <mxCell id="euifeGbPDPr2ujzqLKZH-15" value="currentDayCache" style="rounded=0;whiteSpace=wrap;html=1;" parent="euifeGbPDPr2ujzqLKZH-1" vertex="1">
          <mxGeometry x="200" y="-1080" width="100" height="40" as="geometry" />
        </mxCell>
        <mxCell id="euifeGbPDPr2ujzqLKZH-16" value="airQualityService" style="rounded=0;whiteSpace=wrap;html=1;" parent="euifeGbPDPr2ujzqLKZH-1" vertex="1">
          <mxGeometry x="588.29" y="-1081" width="100" height="40" as="geometry" />
        </mxCell>
        <mxCell id="euifeGbPDPr2ujzqLKZH-17" value="User" style="shape=umlActor;verticalLabelPosition=bottom;verticalAlign=top;html=1;outlineConnect=0;" parent="euifeGbPDPr2ujzqLKZH-1" vertex="1">
          <mxGeometry x="78.37" y="-1070" width="23.28" height="40" as="geometry" />
        </mxCell>
        <mxCell id="euifeGbPDPr2ujzqLKZH-18" style="edgeStyle=none;rounded=0;orthogonalLoop=1;jettySize=auto;html=1;exitX=0.5;exitY=1;exitDx=0;exitDy=0;dashed=1;endArrow=none;endFill=0;" parent="euifeGbPDPr2ujzqLKZH-1" edge="1">
          <mxGeometry relative="1" as="geometry">
            <mxPoint x="249.28999999999996" y="-1039" as="sourcePoint" />
            <mxPoint x="249.28999999999996" y="-989" as="targetPoint" />
          </mxGeometry>
        </mxCell>
        <mxCell id="euifeGbPDPr2ujzqLKZH-19" style="edgeStyle=none;rounded=0;orthogonalLoop=1;jettySize=auto;html=1;exitX=0.5;exitY=1;exitDx=0;exitDy=0;dashed=1;endArrow=none;endFill=0;" parent="euifeGbPDPr2ujzqLKZH-1" edge="1">
          <mxGeometry relative="1" as="geometry">
            <mxPoint x="407.5999999999999" y="-1040" as="sourcePoint" />
            <mxPoint x="407.28999999999996" y="-990" as="targetPoint" />
          </mxGeometry>
        </mxCell>
        <mxCell id="euifeGbPDPr2ujzqLKZH-20" style="edgeStyle=none;rounded=0;orthogonalLoop=1;jettySize=auto;html=1;exitX=0.549;exitY=0.994;exitDx=0;exitDy=0;dashed=1;endArrow=none;endFill=0;entryX=0;entryY=0.5;entryDx=0;entryDy=0;exitPerimeter=0;" parent="euifeGbPDPr2ujzqLKZH-1" source="euifeGbPDPr2ujzqLKZH-16" target="euifeGbPDPr2ujzqLKZH-13" edge="1">
          <mxGeometry relative="1" as="geometry">
            <mxPoint x="642.6999999999999" y="-1030" as="sourcePoint" />
            <mxPoint x="642.29" y="-990" as="targetPoint" />
          </mxGeometry>
        </mxCell>
        <mxCell id="euifeGbPDPr2ujzqLKZH-21" style="edgeStyle=none;rounded=0;orthogonalLoop=1;jettySize=auto;html=1;endArrow=block;endFill=1;exitX=0.032;exitY=-0.106;exitDx=0;exitDy=0;exitPerimeter=0;entryX=0.058;entryY=1.071;entryDx=0;entryDy=0;entryPerimeter=0;" parent="euifeGbPDPr2ujzqLKZH-1" source="euifeGbPDPr2ujzqLKZH-10" target="euifeGbPDPr2ujzqLKZH-12" edge="1">
          <mxGeometry relative="1" as="geometry">
            <mxPoint x="101.65499999999986" y="-969.9977999999999" as="sourcePoint" />
            <mxPoint x="238.29" y="-970" as="targetPoint" />
          </mxGeometry>
        </mxCell>
        <mxCell id="euifeGbPDPr2ujzqLKZH-22" value="Address" style="edgeLabel;html=1;align=center;verticalAlign=middle;resizable=0;points=[];fontSize=9;labelBackgroundColor=none;" parent="euifeGbPDPr2ujzqLKZH-21" connectable="0" vertex="1">
          <mxGeometry x="-0.2034" y="-1" relative="1" as="geometry">
            <mxPoint x="13" y="-8" as="offset" />
          </mxGeometry>
        </mxCell>
        <mxCell id="euifeGbPDPr2ujzqLKZH-23" style="edgeStyle=none;rounded=0;orthogonalLoop=1;jettySize=auto;html=1;endArrow=block;endFill=1;exitX=0.069;exitY=0.048;exitDx=0;exitDy=0;exitPerimeter=0;entryX=0.043;entryY=1;entryDx=0;entryDy=0;entryPerimeter=0;" parent="euifeGbPDPr2ujzqLKZH-1" edge="1">
          <mxGeometry relative="1" as="geometry">
            <mxPoint x="254.51999999999998" y="-723.9140199999998" as="sourcePoint" />
            <mxPoint x="638.29" y="-723.79" as="targetPoint" />
          </mxGeometry>
        </mxCell>
        <mxCell id="euifeGbPDPr2ujzqLKZH-24" value="Cache information send" style="edgeLabel;html=1;align=center;verticalAlign=middle;resizable=0;points=[];fontSize=9;labelBackgroundColor=none;" parent="euifeGbPDPr2ujzqLKZH-23" connectable="0" vertex="1">
          <mxGeometry x="-0.2034" y="-1" relative="1" as="geometry">
            <mxPoint x="71" y="-7" as="offset" />
          </mxGeometry>
        </mxCell>
        <mxCell id="euifeGbPDPr2ujzqLKZH-25" style="edgeStyle=none;rounded=0;orthogonalLoop=1;jettySize=auto;html=1;dashed=1;fontSize=10;endArrow=open;endFill=0;exitX=0.939;exitY=1.106;exitDx=0;exitDy=0;exitPerimeter=0;entryX=0.927;entryY=-0.084;entryDx=0;entryDy=0;entryPerimeter=0;" parent="euifeGbPDPr2ujzqLKZH-1" source="euifeGbPDPr2ujzqLKZH-13" target="euifeGbPDPr2ujzqLKZH-10" edge="1">
          <mxGeometry relative="1" as="geometry">
            <mxPoint x="625.27" y="-539.9980999999999" as="sourcePoint" />
            <mxPoint x="488.29499999999985" y="-539.6552199999999" as="targetPoint" />
          </mxGeometry>
        </mxCell>
        <mxCell id="euifeGbPDPr2ujzqLKZH-26" style="edgeStyle=none;rounded=0;orthogonalLoop=1;jettySize=auto;html=1;endArrow=block;endFill=1;exitX=0.31;exitY=-0.067;exitDx=0;exitDy=0;exitPerimeter=0;entryX=0.471;entryY=1.146;entryDx=0;entryDy=0;entryPerimeter=0;" parent="euifeGbPDPr2ujzqLKZH-1" source="euifeGbPDPr2ujzqLKZH-12" target="euifeGbPDPr2ujzqLKZH-11" edge="1">
          <mxGeometry relative="1" as="geometry">
            <mxPoint x="258.29" y="-899.00402" as="sourcePoint" />
            <mxPoint x="398.29" y="-899" as="targetPoint" />
          </mxGeometry>
        </mxCell>
        <mxCell id="euifeGbPDPr2ujzqLKZH-27" value="Location request" style="edgeLabel;html=1;align=center;verticalAlign=middle;resizable=0;points=[];fontSize=9;labelBackgroundColor=none;" parent="euifeGbPDPr2ujzqLKZH-26" connectable="0" vertex="1">
          <mxGeometry x="-0.2034" y="-1" relative="1" as="geometry">
            <mxPoint x="16" y="-11" as="offset" />
          </mxGeometry>
        </mxCell>
        <mxCell id="euifeGbPDPr2ujzqLKZH-28" value="" style="rounded=0;whiteSpace=wrap;html=1;rotation=90;" parent="euifeGbPDPr2ujzqLKZH-1" vertex="1">
          <mxGeometry x="355.79" y="-630" width="105" height="10" as="geometry" />
        </mxCell>
        <mxCell id="euifeGbPDPr2ujzqLKZH-29" style="edgeStyle=none;rounded=0;orthogonalLoop=1;jettySize=auto;html=1;dashed=1;fontSize=10;endArrow=open;endFill=0;exitX=0.541;exitY=1.161;exitDx=0;exitDy=0;exitPerimeter=0;entryX=0.76;entryY=-0.074;entryDx=0;entryDy=0;entryPerimeter=0;" parent="euifeGbPDPr2ujzqLKZH-1" source="euifeGbPDPr2ujzqLKZH-28" target="euifeGbPDPr2ujzqLKZH-10" edge="1">
          <mxGeometry relative="1" as="geometry">
            <mxPoint x="641.85" y="-620" as="sourcePoint" />
            <mxPoint x="101.64500000000012" y="-619.7957200000001" as="targetPoint" />
          </mxGeometry>
        </mxCell>
        <mxCell id="euifeGbPDPr2ujzqLKZH-30" style="edgeStyle=none;rounded=0;orthogonalLoop=1;jettySize=auto;html=1;exitX=0.5;exitY=1;exitDx=0;exitDy=0;dashed=1;endArrow=none;endFill=0;" parent="euifeGbPDPr2ujzqLKZH-1" edge="1">
          <mxGeometry relative="1" as="geometry">
            <mxPoint x="407.95000000000005" y="-798" as="sourcePoint" />
            <mxPoint x="408.28999999999996" y="-678.0000000000001" as="targetPoint" />
          </mxGeometry>
        </mxCell>
        <mxCell id="euifeGbPDPr2ujzqLKZH-31" style="edgeStyle=none;rounded=0;orthogonalLoop=1;jettySize=auto;html=1;endArrow=block;endFill=1;exitX=0.888;exitY=-0.104;exitDx=0;exitDy=0;exitPerimeter=0;entryX=0.106;entryY=1;entryDx=0;entryDy=0;entryPerimeter=0;" parent="euifeGbPDPr2ujzqLKZH-1" source="euifeGbPDPr2ujzqLKZH-11" target="euifeGbPDPr2ujzqLKZH-13" edge="1">
          <mxGeometry relative="1" as="geometry">
            <mxPoint x="418.2899999999999" y="-820.0000000000001" as="sourcePoint" />
            <mxPoint x="564.4499999999999" y="-819.6" as="targetPoint" />
          </mxGeometry>
        </mxCell>
        <mxCell id="euifeGbPDPr2ujzqLKZH-32" value="Location send" style="edgeLabel;html=1;align=center;verticalAlign=middle;resizable=0;points=[];fontSize=9;labelBackgroundColor=none;" parent="euifeGbPDPr2ujzqLKZH-31" connectable="0" vertex="1">
          <mxGeometry x="-0.2034" y="-1" relative="1" as="geometry">
            <mxPoint x="15" y="-10" as="offset" />
          </mxGeometry>
        </mxCell>
        <mxCell id="jya3ErfVAtmOZugXvIji-0" value="AS-EX 4.3 a)&lt;br&gt;Grupo 601 (DF, DC, ST, FC)&lt;br&gt;v2022/03/30" style="shape=note2;boundedLbl=1;whiteSpace=wrap;html=1;size=11;verticalAlign=top;align=left;fontSize=9;fillColor=#dae8fc;strokeColor=#6c8ebf;" parent="euifeGbPDPr2ujzqLKZH-1" vertex="1">
          <mxGeometry x="38.29" y="-440" width="125" height="50" as="geometry" />
        </mxCell>
      </root>
    </mxGraphModel>
  </diagram>
  <diagram id="giD1vFVv_zi_yXxCV9th" name="4.3b)">
    <mxGraphModel dx="1372" dy="765" grid="1" gridSize="10" guides="1" tooltips="1" connect="1" arrows="1" fold="1" page="1" pageScale="1" pageWidth="827" pageHeight="1169" math="0" shadow="0">
      <root>
        <mxCell id="0" />
        <mxCell id="1" parent="0" />
        <mxCell id="qkpcVW99u3w5NqDl_pnN-2" value="geocodingService" style="swimlane;fontStyle=0;align=center;verticalAlign=top;childLayout=stackLayout;horizontal=1;startSize=26;horizontalStack=0;resizeParent=1;resizeLast=0;collapsible=1;marginBottom=0;rounded=0;shadow=0;strokeWidth=1;" parent="1" vertex="1">
          <mxGeometry x="442" y="30" width="216" height="180" as="geometry">
            <mxRectangle x="130" y="380" width="160" height="26" as="alternateBounds" />
          </mxGeometry>
        </mxCell>
        <mxCell id="qkpcVW99u3w5NqDl_pnN-3" value="-apiKey" style="text;align=left;verticalAlign=top;spacingLeft=4;spacingRight=4;overflow=hidden;rotatable=0;points=[[0,0.5],[1,0.5]];portConstraint=eastwest;" parent="qkpcVW99u3w5NqDl_pnN-2" vertex="1">
          <mxGeometry y="26" width="216" height="26" as="geometry" />
        </mxCell>
        <mxCell id="qkpcVW99u3w5NqDl_pnN-4" value="-objectMapper" style="text;align=left;verticalAlign=top;spacingLeft=4;spacingRight=4;overflow=hidden;rotatable=0;points=[[0,0.5],[1,0.5]];portConstraint=eastwest;rounded=0;shadow=0;html=0;" parent="qkpcVW99u3w5NqDl_pnN-2" vertex="1">
          <mxGeometry y="52" width="216" height="26" as="geometry" />
        </mxCell>
        <mxCell id="qkpcVW99u3w5NqDl_pnN-18" style="edgeStyle=orthogonalEdgeStyle;rounded=0;orthogonalLoop=1;jettySize=auto;html=1;exitX=1;exitY=1;exitDx=0;exitDy=0;entryX=1;entryY=0;entryDx=0;entryDy=0;" parent="qkpcVW99u3w5NqDl_pnN-2" source="qkpcVW99u3w5NqDl_pnN-5" target="qkpcVW99u3w5NqDl_pnN-6" edge="1">
          <mxGeometry relative="1" as="geometry" />
        </mxCell>
        <mxCell id="qkpcVW99u3w5NqDl_pnN-5" value="&lt;div align=&quot;left&quot;&gt;&amp;nbsp;-GEOCODING&lt;/div&gt;" style="text;html=1;strokeColor=none;fillColor=none;align=left;verticalAlign=middle;whiteSpace=wrap;rounded=0;shadow=1;" parent="qkpcVW99u3w5NqDl_pnN-2" vertex="1">
          <mxGeometry y="78" width="216" height="30" as="geometry" />
        </mxCell>
        <mxCell id="qkpcVW99u3w5NqDl_pnN-6" value="&amp;nbsp;-LOGGER" style="text;html=1;strokeColor=none;fillColor=none;align=left;verticalAlign=middle;whiteSpace=wrap;rounded=0;shadow=1;" parent="qkpcVW99u3w5NqDl_pnN-2" vertex="1">
          <mxGeometry y="108" width="216" height="30" as="geometry" />
        </mxCell>
        <mxCell id="qkpcVW99u3w5NqDl_pnN-7" value="" style="line;html=1;strokeWidth=1;align=left;verticalAlign=middle;spacingTop=-1;spacingLeft=3;spacingRight=3;rotatable=0;labelPosition=right;points=[];portConstraint=eastwest;" parent="qkpcVW99u3w5NqDl_pnN-2" vertex="1">
          <mxGeometry y="138" width="216" height="8" as="geometry" />
        </mxCell>
        <mxCell id="qkpcVW99u3w5NqDl_pnN-8" value="&amp;nbsp;+getCoordinatesFromAddress(address)" style="text;html=1;strokeColor=none;fillColor=none;align=center;verticalAlign=middle;whiteSpace=wrap;rounded=0;shadow=1;" parent="qkpcVW99u3w5NqDl_pnN-2" vertex="1">
          <mxGeometry y="146" width="216" height="30" as="geometry" />
        </mxCell>
        <mxCell id="qkpcVW99u3w5NqDl_pnN-10" value="currentDayCache" style="swimlane;fontStyle=0;align=center;verticalAlign=top;childLayout=stackLayout;horizontal=1;startSize=26;horizontalStack=0;resizeParent=1;resizeLast=0;collapsible=1;marginBottom=0;rounded=0;shadow=0;strokeWidth=1;" parent="1" vertex="1">
          <mxGeometry x="840" y="290" width="190" height="326" as="geometry">
            <mxRectangle x="130" y="380" width="160" height="26" as="alternateBounds" />
          </mxGeometry>
        </mxCell>
        <mxCell id="qkpcVW99u3w5NqDl_pnN-11" value="+ttl" style="text;align=left;verticalAlign=top;spacingLeft=4;spacingRight=4;overflow=hidden;rotatable=0;points=[[0,0.5],[1,0.5]];portConstraint=eastwest;" parent="qkpcVW99u3w5NqDl_pnN-10" vertex="1">
          <mxGeometry y="26" width="190" height="26" as="geometry" />
        </mxCell>
        <mxCell id="qkpcVW99u3w5NqDl_pnN-12" value="-requests" style="text;align=left;verticalAlign=top;spacingLeft=4;spacingRight=4;overflow=hidden;rotatable=0;points=[[0,0.5],[1,0.5]];portConstraint=eastwest;rounded=0;shadow=0;html=0;" parent="qkpcVW99u3w5NqDl_pnN-10" vertex="1">
          <mxGeometry y="52" width="190" height="26" as="geometry" />
        </mxCell>
        <mxCell id="qkpcVW99u3w5NqDl_pnN-36" value="&amp;nbsp;-misses" style="text;html=1;strokeColor=none;fillColor=none;align=left;verticalAlign=middle;whiteSpace=wrap;rounded=0;" parent="qkpcVW99u3w5NqDl_pnN-10" vertex="1">
          <mxGeometry y="78" width="190" height="30" as="geometry" />
        </mxCell>
        <mxCell id="qkpcVW99u3w5NqDl_pnN-37" value="&lt;div align=&quot;left&quot;&gt;-hits&lt;/div&gt;" style="text;html=1;strokeColor=none;fillColor=none;align=left;verticalAlign=middle;whiteSpace=wrap;rounded=0;" parent="qkpcVW99u3w5NqDl_pnN-10" vertex="1">
          <mxGeometry y="108" width="190" height="30" as="geometry" />
        </mxCell>
        <mxCell id="qkpcVW99u3w5NqDl_pnN-38" value="&lt;div align=&quot;left&quot;&gt;-cacheType&lt;/div&gt;" style="text;html=1;strokeColor=none;fillColor=none;align=left;verticalAlign=middle;whiteSpace=wrap;rounded=0;" parent="qkpcVW99u3w5NqDl_pnN-10" vertex="1">
          <mxGeometry y="138" width="190" height="30" as="geometry" />
        </mxCell>
        <mxCell id="qkpcVW99u3w5NqDl_pnN-39" value="&lt;div align=&quot;left&quot;&gt;-cachedRequests&lt;/div&gt;" style="text;html=1;strokeColor=none;fillColor=none;align=left;verticalAlign=middle;whiteSpace=wrap;rounded=0;" parent="qkpcVW99u3w5NqDl_pnN-10" vertex="1">
          <mxGeometry y="168" width="190" height="30" as="geometry" />
        </mxCell>
        <mxCell id="qkpcVW99u3w5NqDl_pnN-40" value="&lt;div align=&quot;left&quot;&gt;-cachedRequestsTtl&lt;/div&gt;" style="text;html=1;strokeColor=none;fillColor=none;align=left;verticalAlign=middle;whiteSpace=wrap;rounded=0;" parent="qkpcVW99u3w5NqDl_pnN-10" vertex="1">
          <mxGeometry y="198" width="190" height="30" as="geometry" />
        </mxCell>
        <mxCell id="qkpcVW99u3w5NqDl_pnN-41" value="&lt;div align=&quot;left&quot;&gt;-LOGGER&lt;/div&gt;" style="text;html=1;strokeColor=none;fillColor=none;align=left;verticalAlign=middle;whiteSpace=wrap;rounded=0;" parent="qkpcVW99u3w5NqDl_pnN-10" vertex="1">
          <mxGeometry y="228" width="190" height="30" as="geometry" />
        </mxCell>
        <mxCell id="qkpcVW99u3w5NqDl_pnN-13" value="" style="line;html=1;strokeWidth=1;align=left;verticalAlign=middle;spacingTop=-1;spacingLeft=3;spacingRight=3;rotatable=0;labelPosition=right;points=[];portConstraint=eastwest;" parent="qkpcVW99u3w5NqDl_pnN-10" vertex="1">
          <mxGeometry y="258" width="190" height="8" as="geometry" />
        </mxCell>
        <mxCell id="qkpcVW99u3w5NqDl_pnN-34" value="+getRequestFromCashe(identifier)" style="text;html=1;strokeColor=none;fillColor=none;align=left;verticalAlign=middle;whiteSpace=wrap;rounded=0;" parent="qkpcVW99u3w5NqDl_pnN-10" vertex="1">
          <mxGeometry y="266" width="190" height="30" as="geometry" />
        </mxCell>
        <mxCell id="qkpcVW99u3w5NqDl_pnN-35" value="&lt;div align=&quot;left&quot;&gt;+saveRequestFromCashe(identifier, obj)&lt;br&gt;&lt;/div&gt;" style="text;html=1;strokeColor=none;fillColor=none;align=left;verticalAlign=middle;whiteSpace=wrap;rounded=0;" parent="qkpcVW99u3w5NqDl_pnN-10" vertex="1">
          <mxGeometry y="296" width="190" height="30" as="geometry" />
        </mxCell>
        <mxCell id="qkpcVW99u3w5NqDl_pnN-14" value="AirQualityService" style="swimlane;fontStyle=0;align=center;verticalAlign=top;childLayout=stackLayout;horizontal=1;startSize=26;horizontalStack=0;resizeParent=1;resizeLast=0;collapsible=1;marginBottom=0;rounded=0;shadow=0;strokeWidth=1;" parent="1" vertex="1">
          <mxGeometry x="10" y="270" width="210" height="300" as="geometry">
            <mxRectangle x="130" y="380" width="160" height="26" as="alternateBounds" />
          </mxGeometry>
        </mxCell>
        <mxCell id="qkpcVW99u3w5NqDl_pnN-15" value="-apiKey" style="text;align=left;verticalAlign=top;spacingLeft=4;spacingRight=4;overflow=hidden;rotatable=0;points=[[0,0.5],[1,0.5]];portConstraint=eastwest;" parent="qkpcVW99u3w5NqDl_pnN-14" vertex="1">
          <mxGeometry y="26" width="210" height="26" as="geometry" />
        </mxCell>
        <mxCell id="qkpcVW99u3w5NqDl_pnN-16" value="-restTemplate" style="text;align=left;verticalAlign=top;spacingLeft=4;spacingRight=4;overflow=hidden;rotatable=0;points=[[0,0.5],[1,0.5]];portConstraint=eastwest;rounded=0;shadow=0;html=0;" parent="qkpcVW99u3w5NqDl_pnN-14" vertex="1">
          <mxGeometry y="52" width="210" height="26" as="geometry" />
        </mxCell>
        <mxCell id="qkpcVW99u3w5NqDl_pnN-19" value="&lt;div align=&quot;left&quot;&gt;-AIR_QUALITY_TODAY&lt;/div&gt;" style="text;html=1;strokeColor=none;fillColor=none;align=left;verticalAlign=middle;whiteSpace=wrap;rounded=0;" parent="qkpcVW99u3w5NqDl_pnN-14" vertex="1">
          <mxGeometry y="78" width="210" height="30" as="geometry" />
        </mxCell>
        <mxCell id="qkpcVW99u3w5NqDl_pnN-20" value="&lt;div align=&quot;left&quot;&gt;-AIR_QUALITY_HISTORICAL&lt;/div&gt;" style="text;html=1;strokeColor=none;fillColor=none;align=left;verticalAlign=middle;whiteSpace=wrap;rounded=0;" parent="qkpcVW99u3w5NqDl_pnN-14" vertex="1">
          <mxGeometry y="108" width="210" height="30" as="geometry" />
        </mxCell>
        <mxCell id="qkpcVW99u3w5NqDl_pnN-21" value="&lt;div align=&quot;left&quot;&gt;-AIR_QUALITY_FORECAST&lt;/div&gt;" style="text;html=1;strokeColor=none;fillColor=none;align=left;verticalAlign=middle;whiteSpace=wrap;rounded=0;" parent="qkpcVW99u3w5NqDl_pnN-14" vertex="1">
          <mxGeometry y="138" width="210" height="30" as="geometry" />
        </mxCell>
        <mxCell id="qkpcVW99u3w5NqDl_pnN-22" value="&lt;div align=&quot;left&quot;&gt;-dateFormat&lt;/div&gt;" style="text;html=1;strokeColor=none;fillColor=none;align=left;verticalAlign=middle;whiteSpace=wrap;rounded=0;" parent="qkpcVW99u3w5NqDl_pnN-14" vertex="1">
          <mxGeometry y="168" width="210" height="30" as="geometry" />
        </mxCell>
        <mxCell id="qkpcVW99u3w5NqDl_pnN-23" value="&lt;div align=&quot;left&quot;&gt;-COMPONENTS&lt;/div&gt;" style="text;html=1;strokeColor=none;fillColor=none;align=left;verticalAlign=middle;whiteSpace=wrap;rounded=0;" parent="qkpcVW99u3w5NqDl_pnN-14" vertex="1">
          <mxGeometry y="198" width="210" height="30" as="geometry" />
        </mxCell>
        <mxCell id="qkpcVW99u3w5NqDl_pnN-24" value="-LOGGER" style="text;html=1;strokeColor=none;fillColor=none;align=left;verticalAlign=middle;whiteSpace=wrap;rounded=0;" parent="qkpcVW99u3w5NqDl_pnN-14" vertex="1">
          <mxGeometry y="228" width="210" height="30" as="geometry" />
        </mxCell>
        <mxCell id="qkpcVW99u3w5NqDl_pnN-17" value="" style="line;html=1;strokeWidth=1;align=left;verticalAlign=middle;spacingTop=-1;spacingLeft=3;spacingRight=3;rotatable=0;labelPosition=right;points=[];portConstraint=eastwest;" parent="qkpcVW99u3w5NqDl_pnN-14" vertex="1">
          <mxGeometry y="258" width="210" height="8" as="geometry" />
        </mxCell>
        <mxCell id="qkpcVW99u3w5NqDl_pnN-25" value="+getCurrentAirQuality(location)" style="text;html=1;strokeColor=none;fillColor=none;align=center;verticalAlign=middle;whiteSpace=wrap;rounded=0;" parent="qkpcVW99u3w5NqDl_pnN-14" vertex="1">
          <mxGeometry y="266" width="210" height="30" as="geometry" />
        </mxCell>
        <mxCell id="WW-0zIybGIvx1ofbtxny-17" value="AirQualityRestController" style="swimlane;fontStyle=0;align=center;verticalAlign=top;childLayout=stackLayout;horizontal=1;startSize=26;horizontalStack=0;resizeParent=1;resizeLast=0;collapsible=1;marginBottom=0;rounded=0;shadow=0;strokeWidth=1;" vertex="1" parent="1">
          <mxGeometry x="420" y="290" width="260" height="280" as="geometry">
            <mxRectangle x="130" y="380" width="160" height="26" as="alternateBounds" />
          </mxGeometry>
        </mxCell>
        <mxCell id="WW-0zIybGIvx1ofbtxny-20" style="edgeStyle=orthogonalEdgeStyle;rounded=0;orthogonalLoop=1;jettySize=auto;html=1;exitX=1;exitY=1;exitDx=0;exitDy=0;entryX=1;entryY=0;entryDx=0;entryDy=0;" edge="1" parent="WW-0zIybGIvx1ofbtxny-17">
          <mxGeometry relative="1" as="geometry">
            <mxPoint x="216" y="108" as="sourcePoint" />
            <mxPoint x="216" y="108" as="targetPoint" />
          </mxGeometry>
        </mxCell>
        <mxCell id="WW-0zIybGIvx1ofbtxny-25" value="-AirQualityService" style="text;html=1;strokeColor=none;fillColor=none;align=left;verticalAlign=middle;whiteSpace=wrap;rounded=0;" vertex="1" parent="WW-0zIybGIvx1ofbtxny-17">
          <mxGeometry y="26" width="260" height="24" as="geometry" />
        </mxCell>
        <mxCell id="EWlXUXdaMS1cIAa4yosL-1" value="&lt;div align=&quot;left&quot;&gt;-geocodingService&lt;/div&gt;" style="text;html=1;strokeColor=none;fillColor=none;align=left;verticalAlign=middle;whiteSpace=wrap;rounded=0;" vertex="1" parent="WW-0zIybGIvx1ofbtxny-17">
          <mxGeometry y="50" width="260" height="30" as="geometry" />
        </mxCell>
        <mxCell id="EWlXUXdaMS1cIAa4yosL-2" value="&lt;div align=&quot;left&quot;&gt;-currentDayCache&lt;/div&gt;" style="text;html=1;strokeColor=none;fillColor=none;align=left;verticalAlign=middle;whiteSpace=wrap;rounded=0;" vertex="1" parent="WW-0zIybGIvx1ofbtxny-17">
          <mxGeometry y="80" width="260" height="30" as="geometry" />
        </mxCell>
        <mxCell id="EWlXUXdaMS1cIAa4yosL-3" value="&lt;div align=&quot;left&quot;&gt;-historicalCache&lt;/div&gt;" style="text;html=1;strokeColor=none;fillColor=none;align=left;verticalAlign=middle;whiteSpace=wrap;rounded=0;" vertex="1" parent="WW-0zIybGIvx1ofbtxny-17">
          <mxGeometry y="110" width="260" height="30" as="geometry" />
        </mxCell>
        <mxCell id="EWlXUXdaMS1cIAa4yosL-4" value="&lt;div align=&quot;left&quot;&gt;-forecastCache&lt;/div&gt;" style="text;html=1;strokeColor=none;fillColor=none;align=left;verticalAlign=middle;whiteSpace=wrap;rounded=0;" vertex="1" parent="WW-0zIybGIvx1ofbtxny-17">
          <mxGeometry y="140" width="260" height="30" as="geometry" />
        </mxCell>
        <mxCell id="EWlXUXdaMS1cIAa4yosL-5" value="&lt;div align=&quot;left&quot;&gt;-ADDRESS_NOT_FOUND&lt;/div&gt;" style="text;html=1;strokeColor=none;fillColor=none;align=left;verticalAlign=middle;whiteSpace=wrap;rounded=0;" vertex="1" parent="WW-0zIybGIvx1ofbtxny-17">
          <mxGeometry y="170" width="260" height="30" as="geometry" />
        </mxCell>
        <mxCell id="EWlXUXdaMS1cIAa4yosL-6" value="&lt;div align=&quot;left&quot;&gt;-LOGGER&lt;/div&gt;" style="text;html=1;strokeColor=none;fillColor=none;align=left;verticalAlign=middle;whiteSpace=wrap;rounded=0;" vertex="1" parent="WW-0zIybGIvx1ofbtxny-17">
          <mxGeometry y="200" width="260" height="30" as="geometry" />
        </mxCell>
        <mxCell id="WW-0zIybGIvx1ofbtxny-23" value="" style="line;html=1;strokeWidth=1;align=left;verticalAlign=middle;spacingTop=-1;spacingLeft=3;spacingRight=3;rotatable=0;labelPosition=right;points=[];portConstraint=eastwest;" vertex="1" parent="WW-0zIybGIvx1ofbtxny-17">
          <mxGeometry y="230" width="260" height="10" as="geometry" />
        </mxCell>
        <mxCell id="EWlXUXdaMS1cIAa4yosL-7" value="getAirQualityOfTodayFromCoordinates(address)" style="text;html=1;strokeColor=none;fillColor=none;align=center;verticalAlign=middle;whiteSpace=wrap;rounded=0;" vertex="1" parent="WW-0zIybGIvx1ofbtxny-17">
          <mxGeometry y="240" width="260" height="30" as="geometry" />
        </mxCell>
        <mxCell id="mvY_le5TsDKh11SwnPbh-2" value="1" style="text;html=1;strokeColor=none;fillColor=none;align=center;verticalAlign=middle;whiteSpace=wrap;rounded=0;" vertex="1" parent="1">
          <mxGeometry x="660" y="400" width="60" height="30" as="geometry" />
        </mxCell>
        <mxCell id="mvY_le5TsDKh11SwnPbh-12" value="check the cache" style="text;html=1;strokeColor=none;fillColor=none;align=center;verticalAlign=middle;whiteSpace=wrap;rounded=0;" vertex="1" parent="1">
          <mxGeometry x="710" y="400" width="100" height="30" as="geometry" />
        </mxCell>
        <mxCell id="mvY_le5TsDKh11SwnPbh-15" style="edgeStyle=none;rounded=0;sketch=0;orthogonalLoop=1;jettySize=auto;html=1;shadow=0;labelBackgroundColor=#FFFFCC;endArrow=cross;endFill=0;startArrow=classic;startFill=1;entryX=1;entryY=0;entryDx=0;entryDy=0;" edge="1" parent="1" target="EWlXUXdaMS1cIAa4yosL-4">
          <mxGeometry relative="1" as="geometry">
            <Array as="points">
              <mxPoint x="810" y="430" />
              <mxPoint x="840" y="430" />
              <mxPoint x="830" y="430" />
              <mxPoint x="760" y="430" />
            </Array>
            <mxPoint x="840" y="430" as="sourcePoint" />
            <mxPoint x="780" y="390" as="targetPoint" />
          </mxGeometry>
        </mxCell>
        <mxCell id="mvY_le5TsDKh11SwnPbh-16" style="edgeStyle=orthogonalEdgeStyle;rounded=0;orthogonalLoop=1;jettySize=auto;html=1;exitX=1;exitY=0;exitDx=0;exitDy=0;" edge="1" parent="1" source="EWlXUXdaMS1cIAa4yosL-4">
          <mxGeometry relative="1" as="geometry">
            <mxPoint x="680" y="430" as="targetPoint" />
          </mxGeometry>
        </mxCell>
        <mxCell id="mvY_le5TsDKh11SwnPbh-20" style="edgeStyle=none;rounded=0;sketch=0;orthogonalLoop=1;jettySize=auto;html=1;exitX=0.5;exitY=1;exitDx=0;exitDy=0;entryX=0.5;entryY=1;entryDx=0;entryDy=0;shadow=0;labelBackgroundColor=#FFFFCC;endArrow=cross;endFill=0;startArrow=classic;startFill=1;" edge="1" parent="1" source="qkpcVW99u3w5NqDl_pnN-35" target="qkpcVW99u3w5NqDl_pnN-14">
          <mxGeometry relative="1" as="geometry">
            <Array as="points">
              <mxPoint x="935" y="680" />
              <mxPoint x="620" y="680" />
              <mxPoint x="115" y="680" />
            </Array>
            <mxPoint x="971" y="1050" as="sourcePoint" />
            <mxPoint x="330" y="1050" as="targetPoint" />
          </mxGeometry>
        </mxCell>
        <mxCell id="mvY_le5TsDKh11SwnPbh-21" value="1" style="text;html=1;strokeColor=none;fillColor=none;align=center;verticalAlign=middle;whiteSpace=wrap;rounded=0;" vertex="1" parent="1">
          <mxGeometry x="100" y="570" width="60" height="30" as="geometry" />
        </mxCell>
        <mxCell id="mvY_le5TsDKh11SwnPbh-22" value="1" style="text;html=1;strokeColor=none;fillColor=none;align=center;verticalAlign=middle;whiteSpace=wrap;rounded=0;" vertex="1" parent="1">
          <mxGeometry x="920" y="620" width="60" height="30" as="geometry" />
        </mxCell>
        <mxCell id="mvY_le5TsDKh11SwnPbh-23" value="Save the AirQuality of the location in Cache" style="text;html=1;strokeColor=none;fillColor=none;align=center;verticalAlign=middle;whiteSpace=wrap;rounded=0;" vertex="1" parent="1">
          <mxGeometry x="431" y="650" width="238" height="30" as="geometry" />
        </mxCell>
        <mxCell id="mvY_le5TsDKh11SwnPbh-26" value="&lt;div&gt;1&lt;/div&gt;" style="text;html=1;strokeColor=none;fillColor=none;align=center;verticalAlign=middle;whiteSpace=wrap;rounded=0;" vertex="1" parent="1">
          <mxGeometry x="510" y="260" width="60" height="30" as="geometry" />
        </mxCell>
        <mxCell id="mvY_le5TsDKh11SwnPbh-28" style="edgeStyle=none;rounded=0;sketch=0;orthogonalLoop=1;jettySize=auto;html=1;entryX=0.5;entryY=0;entryDx=0;entryDy=0;shadow=0;labelBackgroundColor=#FFFFCC;endArrow=cross;endFill=0;startArrow=classic;startFill=1;exitX=0.5;exitY=1;exitDx=0;exitDy=0;" edge="1" parent="1" source="qkpcVW99u3w5NqDl_pnN-8" target="WW-0zIybGIvx1ofbtxny-17">
          <mxGeometry relative="1" as="geometry">
            <Array as="points">
              <mxPoint x="550" y="220" />
              <mxPoint x="550" y="240" />
            </Array>
            <mxPoint x="380" y="230" as="sourcePoint" />
            <mxPoint x="340" y="1060" as="targetPoint" />
          </mxGeometry>
        </mxCell>
        <mxCell id="mvY_le5TsDKh11SwnPbh-29" value="&lt;div&gt;1&lt;/div&gt;" style="text;html=1;strokeColor=none;fillColor=none;align=center;verticalAlign=middle;whiteSpace=wrap;rounded=0;" vertex="1" parent="1">
          <mxGeometry x="510" y="210" width="60" height="30" as="geometry" />
        </mxCell>
        <mxCell id="mvY_le5TsDKh11SwnPbh-31" value="Check the location of the address" style="text;html=1;strokeColor=none;fillColor=none;align=center;verticalAlign=middle;whiteSpace=wrap;rounded=0;" vertex="1" parent="1">
          <mxGeometry x="550" y="240" width="120" height="30" as="geometry" />
        </mxCell>
        <mxCell id="mvY_le5TsDKh11SwnPbh-32" style="edgeStyle=none;rounded=0;sketch=0;orthogonalLoop=1;jettySize=auto;html=1;exitX=1;exitY=0.75;exitDx=0;exitDy=0;entryX=0;entryY=0;entryDx=0;entryDy=0;shadow=0;labelBackgroundColor=#FFFFCC;endArrow=cross;endFill=0;startArrow=classic;startFill=1;" edge="1" parent="1" source="qkpcVW99u3w5NqDl_pnN-20" target="EWlXUXdaMS1cIAa4yosL-3">
          <mxGeometry relative="1" as="geometry">
            <Array as="points">
              <mxPoint x="360" y="400" />
              <mxPoint x="380" y="400" />
              <mxPoint x="400" y="400" />
            </Array>
            <mxPoint x="991" y="1070" as="sourcePoint" />
            <mxPoint x="350" y="1070" as="targetPoint" />
          </mxGeometry>
        </mxCell>
        <mxCell id="mvY_le5TsDKh11SwnPbh-33" value="1" style="text;html=1;strokeColor=none;fillColor=none;align=center;verticalAlign=middle;whiteSpace=wrap;rounded=0;" vertex="1" parent="1">
          <mxGeometry x="382" y="370" width="60" height="30" as="geometry" />
        </mxCell>
        <mxCell id="mvY_le5TsDKh11SwnPbh-34" value="1" style="text;html=1;strokeColor=none;fillColor=none;align=center;verticalAlign=middle;whiteSpace=wrap;rounded=0;" vertex="1" parent="1">
          <mxGeometry x="200" y="370" width="60" height="30" as="geometry" />
        </mxCell>
        <mxCell id="mvY_le5TsDKh11SwnPbh-35" value="Get the current air quality of the location" style="text;html=1;strokeColor=none;fillColor=none;align=center;verticalAlign=middle;whiteSpace=wrap;rounded=0;" vertex="1" parent="1">
          <mxGeometry x="250" y="405" width="159" height="30" as="geometry" />
        </mxCell>
        <mxCell id="mvY_le5TsDKh11SwnPbh-36" value="1" style="text;html=1;strokeColor=none;fillColor=none;align=center;verticalAlign=middle;whiteSpace=wrap;rounded=0;" vertex="1" parent="1">
          <mxGeometry x="800" y="400" width="60" height="30" as="geometry" />
        </mxCell>
        <mxCell id="kCWuEpQ64gzPnU5ZVXst-1" value="AS-EX 4.3 b)&lt;br&gt;Grupo 601 (DF, DC, ST, FC)&lt;br&gt;v2022/03/30" style="shape=note2;boundedLbl=1;whiteSpace=wrap;html=1;size=11;verticalAlign=top;align=left;fontSize=9;fillColor=#dae8fc;strokeColor=#6c8ebf;" vertex="1" parent="1">
          <mxGeometry x="50" y="690" width="125" height="50" as="geometry" />
        </mxCell>
      </root>
    </mxGraphModel>
  </diagram>
  <diagram id="q5xyPo9IYTetc14Yy8iN" name="4.3a)_alternative ">
    <mxGraphModel dx="2605" dy="868" grid="1" gridSize="10" guides="1" tooltips="1" connect="1" arrows="1" fold="1" page="1" pageScale="1" pageWidth="827" pageHeight="1169" math="0" shadow="0">
      <root>
        <mxCell id="0" />
        <mxCell id="1" parent="0" />
        <mxCell id="6EdszNW5372otWSk4GKb-1" value="User" style="shape=umlActor;verticalLabelPosition=bottom;verticalAlign=top;html=1;outlineConnect=0;" vertex="1" parent="1">
          <mxGeometry x="-80" y="80" width="30" height="60" as="geometry" />
        </mxCell>
        <mxCell id="6EdszNW5372otWSk4GKb-16" style="edgeStyle=orthogonalEdgeStyle;rounded=0;orthogonalLoop=1;jettySize=auto;html=1;exitX=0.5;exitY=1;exitDx=0;exitDy=0;entryX=0.5;entryY=0;entryDx=0;entryDy=0;labelBackgroundColor=none;endArrow=none;endFill=0;dashed=1;" edge="1" parent="1" source="6EdszNW5372otWSk4GKb-2" target="6EdszNW5372otWSk4GKb-15">
          <mxGeometry relative="1" as="geometry" />
        </mxCell>
        <mxCell id="6EdszNW5372otWSk4GKb-2" value="Interface" style="rounded=0;whiteSpace=wrap;html=1;" vertex="1" parent="1">
          <mxGeometry x="20" y="80" width="120" height="40" as="geometry" />
        </mxCell>
        <mxCell id="6EdszNW5372otWSk4GKb-21" style="edgeStyle=orthogonalEdgeStyle;curved=1;rounded=0;orthogonalLoop=1;jettySize=auto;html=1;exitX=0.5;exitY=1;exitDx=0;exitDy=0;entryX=0.5;entryY=0;entryDx=0;entryDy=0;labelBackgroundColor=none;fontSize=11;endArrow=none;endFill=0;dashed=1;" edge="1" parent="1" source="6EdszNW5372otWSk4GKb-3" target="6EdszNW5372otWSk4GKb-17">
          <mxGeometry relative="1" as="geometry" />
        </mxCell>
        <mxCell id="6EdszNW5372otWSk4GKb-3" value="AirQualityRestController" style="rounded=0;whiteSpace=wrap;html=1;" vertex="1" parent="1">
          <mxGeometry x="280" y="80" width="140" height="40" as="geometry" />
        </mxCell>
        <mxCell id="6EdszNW5372otWSk4GKb-27" style="edgeStyle=orthogonalEdgeStyle;curved=1;rounded=0;orthogonalLoop=1;jettySize=auto;html=1;exitX=0.5;exitY=1;exitDx=0;exitDy=0;entryX=0.5;entryY=0;entryDx=0;entryDy=0;dashed=1;labelBackgroundColor=none;fontSize=11;endArrow=none;endFill=0;" edge="1" parent="1" source="6EdszNW5372otWSk4GKb-4" target="6EdszNW5372otWSk4GKb-22">
          <mxGeometry relative="1" as="geometry" />
        </mxCell>
        <mxCell id="6EdszNW5372otWSk4GKb-4" value="currentDayCache : Cache" style="rounded=0;whiteSpace=wrap;html=1;" vertex="1" parent="1">
          <mxGeometry x="525" y="80" width="100" height="40" as="geometry" />
        </mxCell>
        <mxCell id="6EdszNW5372otWSk4GKb-30" style="edgeStyle=orthogonalEdgeStyle;curved=1;rounded=0;orthogonalLoop=1;jettySize=auto;html=1;exitX=0.5;exitY=1;exitDx=0;exitDy=0;entryX=0.5;entryY=0;entryDx=0;entryDy=0;labelBackgroundColor=none;fontSize=11;endArrow=none;endFill=0;dashed=1;" edge="1" parent="1" source="6EdszNW5372otWSk4GKb-5" target="6EdszNW5372otWSk4GKb-29">
          <mxGeometry relative="1" as="geometry" />
        </mxCell>
        <mxCell id="6EdszNW5372otWSk4GKb-5" value="geocodingService : GeocodingService" style="rounded=0;whiteSpace=wrap;html=1;" vertex="1" parent="1">
          <mxGeometry x="637" y="80" width="110" height="40" as="geometry" />
        </mxCell>
        <mxCell id="6EdszNW5372otWSk4GKb-40" style="edgeStyle=orthogonalEdgeStyle;curved=1;rounded=0;orthogonalLoop=1;jettySize=auto;html=1;exitX=0.5;exitY=1;exitDx=0;exitDy=0;entryX=0.5;entryY=0;entryDx=0;entryDy=0;dashed=1;labelBackgroundColor=none;fontSize=11;endArrow=none;endFill=0;" edge="1" parent="1" source="6EdszNW5372otWSk4GKb-7" target="6EdszNW5372otWSk4GKb-34">
          <mxGeometry relative="1" as="geometry">
            <mxPoint x="855" y="120" as="sourcePoint" />
          </mxGeometry>
        </mxCell>
        <mxCell id="6EdszNW5372otWSk4GKb-7" value="positonstack" style="rounded=0;whiteSpace=wrap;html=1;" vertex="1" parent="1">
          <mxGeometry x="815" y="80" width="80" height="40" as="geometry" />
        </mxCell>
        <mxCell id="6EdszNW5372otWSk4GKb-46" style="edgeStyle=orthogonalEdgeStyle;curved=1;rounded=0;orthogonalLoop=1;jettySize=auto;html=1;exitX=0.5;exitY=1;exitDx=0;exitDy=0;entryX=0.5;entryY=0;entryDx=0;entryDy=0;dashed=1;labelBackgroundColor=none;fontSize=11;endArrow=none;endFill=0;" edge="1" parent="1" source="6EdszNW5372otWSk4GKb-8" target="6EdszNW5372otWSk4GKb-45">
          <mxGeometry relative="1" as="geometry" />
        </mxCell>
        <mxCell id="6EdszNW5372otWSk4GKb-8" value="airQualityService : AirQualityService" style="rounded=0;whiteSpace=wrap;html=1;" vertex="1" parent="1">
          <mxGeometry x="920" y="80" width="110" height="40" as="geometry" />
        </mxCell>
        <mxCell id="6EdszNW5372otWSk4GKb-50" style="edgeStyle=orthogonalEdgeStyle;curved=1;rounded=0;orthogonalLoop=1;jettySize=auto;html=1;exitX=0.5;exitY=1;exitDx=0;exitDy=0;entryX=0.5;entryY=0;entryDx=0;entryDy=0;dashed=1;labelBackgroundColor=none;fontSize=11;endArrow=none;endFill=0;" edge="1" parent="1" source="6EdszNW5372otWSk4GKb-9" target="6EdszNW5372otWSk4GKb-53">
          <mxGeometry relative="1" as="geometry">
            <mxPoint x="1109.5" y="560" as="targetPoint" />
          </mxGeometry>
        </mxCell>
        <mxCell id="6EdszNW5372otWSk4GKb-9" value="openweathermap" style="rounded=0;whiteSpace=wrap;html=1;" vertex="1" parent="1">
          <mxGeometry x="1075.5" y="80" width="99" height="40" as="geometry" />
        </mxCell>
        <mxCell id="6EdszNW5372otWSk4GKb-12" value="Search(address)" style="html=1;verticalAlign=bottom;endArrow=block;rounded=0;labelBackgroundColor=none;exitX=1.114;exitY=0.017;exitDx=0;exitDy=0;exitPerimeter=0;entryX=0;entryY=0;entryDx=0;entryDy=0;" edge="1" parent="1" source="6EdszNW5372otWSk4GKb-14" target="6EdszNW5372otWSk4GKb-15">
          <mxGeometry width="80" relative="1" as="geometry">
            <mxPoint x="-50" y="170" as="sourcePoint" />
            <mxPoint x="70" y="170" as="targetPoint" />
          </mxGeometry>
        </mxCell>
        <mxCell id="dJ1RPKXm6JqfVN6oGj3c-11" style="edgeStyle=orthogonalEdgeStyle;curved=1;rounded=0;orthogonalLoop=1;jettySize=auto;html=1;exitX=0.5;exitY=1;exitDx=0;exitDy=0;dashed=1;labelBackgroundColor=none;fontSize=11;endArrow=none;endFill=0;" edge="1" parent="1" source="6EdszNW5372otWSk4GKb-14">
          <mxGeometry relative="1" as="geometry">
            <mxPoint x="-65.24137931034488" y="800" as="targetPoint" />
          </mxGeometry>
        </mxCell>
        <mxCell id="6EdszNW5372otWSk4GKb-14" value="" style="rounded=0;whiteSpace=wrap;html=1;" vertex="1" parent="1">
          <mxGeometry x="-70" y="160" width="10" height="610" as="geometry" />
        </mxCell>
        <mxCell id="dJ1RPKXm6JqfVN6oGj3c-12" style="edgeStyle=orthogonalEdgeStyle;curved=1;rounded=0;orthogonalLoop=1;jettySize=auto;html=1;exitX=0.5;exitY=1;exitDx=0;exitDy=0;dashed=1;labelBackgroundColor=none;fontSize=11;endArrow=none;endFill=0;" edge="1" parent="1" source="6EdszNW5372otWSk4GKb-15">
          <mxGeometry relative="1" as="geometry">
            <mxPoint x="80" y="800" as="targetPoint" />
          </mxGeometry>
        </mxCell>
        <mxCell id="6EdszNW5372otWSk4GKb-15" value="" style="rounded=0;whiteSpace=wrap;html=1;" vertex="1" parent="1">
          <mxGeometry x="75" y="170" width="10" height="590" as="geometry" />
        </mxCell>
        <mxCell id="dJ1RPKXm6JqfVN6oGj3c-14" style="edgeStyle=orthogonalEdgeStyle;curved=1;rounded=0;orthogonalLoop=1;jettySize=auto;html=1;exitX=0.5;exitY=1;exitDx=0;exitDy=0;dashed=1;labelBackgroundColor=none;fontSize=11;endArrow=none;endFill=0;" edge="1" parent="1" source="6EdszNW5372otWSk4GKb-17">
          <mxGeometry relative="1" as="geometry">
            <mxPoint x="350" y="800" as="targetPoint" />
          </mxGeometry>
        </mxCell>
        <mxCell id="6EdszNW5372otWSk4GKb-17" value="" style="rounded=0;whiteSpace=wrap;html=1;" vertex="1" parent="1">
          <mxGeometry x="345" y="220" width="10" height="500" as="geometry" />
        </mxCell>
        <mxCell id="6EdszNW5372otWSk4GKb-18" value="address" style="html=1;verticalAlign=bottom;endArrow=block;rounded=0;labelBackgroundColor=none;exitX=1.038;exitY=0.018;exitDx=0;exitDy=0;exitPerimeter=0;entryX=0;entryY=0.5;entryDx=0;entryDy=0;" edge="1" parent="1" source="6EdszNW5372otWSk4GKb-15" target="6EdszNW5372otWSk4GKb-70">
          <mxGeometry width="80" relative="1" as="geometry">
            <mxPoint x="90" y="180" as="sourcePoint" />
            <mxPoint x="150" y="180" as="targetPoint" />
          </mxGeometry>
        </mxCell>
        <mxCell id="6EdszNW5372otWSk4GKb-19" value="" style="endArrow=classic;html=1;rounded=0;labelBackgroundColor=none;edgeStyle=orthogonalEdgeStyle;curved=1;exitX=1.029;exitY=0.02;exitDx=0;exitDy=0;exitPerimeter=0;entryX=1.029;entryY=0.061;entryDx=0;entryDy=0;entryPerimeter=0;" edge="1" parent="1" source="6EdszNW5372otWSk4GKb-17" target="6EdszNW5372otWSk4GKb-17">
          <mxGeometry width="50" height="50" relative="1" as="geometry">
            <mxPoint x="360" y="230" as="sourcePoint" />
            <mxPoint x="360" y="250" as="targetPoint" />
            <Array as="points">
              <mxPoint x="380" y="230" />
              <mxPoint x="380" y="250" />
            </Array>
          </mxGeometry>
        </mxCell>
        <mxCell id="6EdszNW5372otWSk4GKb-20" value="hash(address)" style="text;html=1;align=center;verticalAlign=middle;resizable=0;points=[];autosize=1;strokeColor=none;fillColor=none;fontSize=11;" vertex="1" parent="1">
          <mxGeometry x="369" y="220" width="90" height="20" as="geometry" />
        </mxCell>
        <mxCell id="6EdszNW5372otWSk4GKb-66" style="edgeStyle=orthogonalEdgeStyle;curved=1;rounded=0;orthogonalLoop=1;jettySize=auto;html=1;exitX=0.5;exitY=1;exitDx=0;exitDy=0;entryX=0.5;entryY=0;entryDx=0;entryDy=0;dashed=1;labelBackgroundColor=none;fontSize=11;endArrow=none;endFill=0;" edge="1" parent="1" source="6EdszNW5372otWSk4GKb-22" target="6EdszNW5372otWSk4GKb-65">
          <mxGeometry relative="1" as="geometry" />
        </mxCell>
        <mxCell id="6EdszNW5372otWSk4GKb-22" value="" style="rounded=0;whiteSpace=wrap;html=1;" vertex="1" parent="1">
          <mxGeometry x="570" y="280" width="10" height="40" as="geometry" />
        </mxCell>
        <mxCell id="6EdszNW5372otWSk4GKb-23" value="getRequestFromCache(hash)" style="html=1;verticalAlign=bottom;endArrow=block;rounded=0;labelBackgroundColor=none;exitX=1.038;exitY=0.119;exitDx=0;exitDy=0;exitPerimeter=0;entryX=0;entryY=0;entryDx=0;entryDy=0;" edge="1" parent="1" source="6EdszNW5372otWSk4GKb-17" target="6EdszNW5372otWSk4GKb-22">
          <mxGeometry x="0.0667" width="80" relative="1" as="geometry">
            <mxPoint x="360" y="279.5799999999999" as="sourcePoint" />
            <mxPoint x="560" y="280" as="targetPoint" />
            <mxPoint as="offset" />
          </mxGeometry>
        </mxCell>
        <mxCell id="6EdszNW5372otWSk4GKb-24" value="" style="endArrow=classic;html=1;rounded=0;labelBackgroundColor=none;edgeStyle=orthogonalEdgeStyle;curved=1;exitX=1;exitY=0.25;exitDx=0;exitDy=0;entryX=1;entryY=0.75;entryDx=0;entryDy=0;" edge="1" parent="1" source="6EdszNW5372otWSk4GKb-22" target="6EdszNW5372otWSk4GKb-22">
          <mxGeometry width="50" height="50" relative="1" as="geometry">
            <mxPoint x="585" y="290" as="sourcePoint" />
            <mxPoint x="585" y="310" as="targetPoint" />
            <Array as="points">
              <mxPoint x="605" y="290" />
              <mxPoint x="605" y="310" />
            </Array>
          </mxGeometry>
        </mxCell>
        <mxCell id="6EdszNW5372otWSk4GKb-25" value="obj = get(hash)" style="text;html=1;align=center;verticalAlign=middle;resizable=0;points=[];autosize=1;strokeColor=none;fillColor=none;fontSize=11;" vertex="1" parent="1">
          <mxGeometry x="595" y="280" width="90" height="20" as="geometry" />
        </mxCell>
        <mxCell id="6EdszNW5372otWSk4GKb-26" value="airQuality" style="html=1;verticalAlign=bottom;endArrow=open;dashed=1;endSize=8;rounded=0;labelBackgroundColor=none;fontSize=11;curved=1;exitX=0;exitY=1;exitDx=0;exitDy=0;entryX=1.067;entryY=0.2;entryDx=0;entryDy=0;entryPerimeter=0;" edge="1" parent="1" source="6EdszNW5372otWSk4GKb-22" target="6EdszNW5372otWSk4GKb-17">
          <mxGeometry relative="1" as="geometry">
            <mxPoint x="560" y="320" as="sourcePoint" />
            <mxPoint x="360" y="320" as="targetPoint" />
          </mxGeometry>
        </mxCell>
        <mxCell id="6EdszNW5372otWSk4GKb-28" value="getCoordinatesFromAddress(address)" style="html=1;verticalAlign=bottom;endArrow=block;rounded=0;labelBackgroundColor=none;fontSize=11;curved=1;exitX=0.997;exitY=0.28;exitDx=0;exitDy=0;exitPerimeter=0;entryX=0;entryY=0;entryDx=0;entryDy=0;" edge="1" parent="1" source="6EdszNW5372otWSk4GKb-17" target="6EdszNW5372otWSk4GKb-29">
          <mxGeometry width="80" relative="1" as="geometry">
            <mxPoint x="360" y="360" as="sourcePoint" />
            <mxPoint x="680" y="360" as="targetPoint" />
          </mxGeometry>
        </mxCell>
        <mxCell id="dJ1RPKXm6JqfVN6oGj3c-16" style="edgeStyle=orthogonalEdgeStyle;curved=1;rounded=0;orthogonalLoop=1;jettySize=auto;html=1;exitX=0.5;exitY=1;exitDx=0;exitDy=0;dashed=1;labelBackgroundColor=none;fontSize=11;endArrow=none;endFill=0;" edge="1" parent="1" source="6EdszNW5372otWSk4GKb-29">
          <mxGeometry relative="1" as="geometry">
            <mxPoint x="692.166666666667" y="800" as="targetPoint" />
          </mxGeometry>
        </mxCell>
        <mxCell id="6EdszNW5372otWSk4GKb-29" value="" style="rounded=0;whiteSpace=wrap;html=1;" vertex="1" parent="1">
          <mxGeometry x="687" y="360" width="10" height="90" as="geometry" />
        </mxCell>
        <mxCell id="6EdszNW5372otWSk4GKb-31" value="" style="endArrow=classic;html=1;rounded=0;labelBackgroundColor=none;edgeStyle=orthogonalEdgeStyle;curved=1;exitX=1.017;exitY=0.111;exitDx=0;exitDy=0;exitPerimeter=0;entryX=1.017;entryY=0.336;entryDx=0;entryDy=0;entryPerimeter=0;" edge="1" parent="1" source="6EdszNW5372otWSk4GKb-29" target="6EdszNW5372otWSk4GKb-29">
          <mxGeometry width="50" height="50" relative="1" as="geometry">
            <mxPoint x="700" y="369.98" as="sourcePoint" />
            <mxPoint x="700" y="389.98" as="targetPoint" />
            <Array as="points">
              <mxPoint x="720" y="370" />
              <mxPoint x="720" y="390" />
            </Array>
          </mxGeometry>
        </mxCell>
        <mxCell id="6EdszNW5372otWSk4GKb-32" value="url = address + api_key" style="text;html=1;align=center;verticalAlign=middle;resizable=0;points=[];autosize=1;strokeColor=none;fillColor=none;fontSize=11;" vertex="1" parent="1">
          <mxGeometry x="710" y="360" width="130" height="20" as="geometry" />
        </mxCell>
        <mxCell id="6EdszNW5372otWSk4GKb-33" value="getForEntity(url)" style="html=1;verticalAlign=bottom;endArrow=block;rounded=0;labelBackgroundColor=none;fontSize=11;curved=1;exitX=0.973;exitY=0.555;exitDx=0;exitDy=0;exitPerimeter=0;entryX=0;entryY=0;entryDx=0;entryDy=0;" edge="1" parent="1" source="6EdszNW5372otWSk4GKb-29" target="6EdszNW5372otWSk4GKb-34">
          <mxGeometry width="80" relative="1" as="geometry">
            <mxPoint x="700" y="410" as="sourcePoint" />
            <mxPoint x="840" y="410" as="targetPoint" />
          </mxGeometry>
        </mxCell>
        <mxCell id="dJ1RPKXm6JqfVN6oGj3c-17" style="edgeStyle=orthogonalEdgeStyle;curved=1;rounded=0;orthogonalLoop=1;jettySize=auto;html=1;exitX=0.5;exitY=1;exitDx=0;exitDy=0;dashed=1;labelBackgroundColor=none;fontSize=11;endArrow=none;endFill=0;" edge="1" parent="1" source="6EdszNW5372otWSk4GKb-34">
          <mxGeometry relative="1" as="geometry">
            <mxPoint x="855" y="800" as="targetPoint" />
          </mxGeometry>
        </mxCell>
        <mxCell id="6EdszNW5372otWSk4GKb-34" value="" style="rounded=0;whiteSpace=wrap;html=1;" vertex="1" parent="1">
          <mxGeometry x="850" y="410" width="10" height="30" as="geometry" />
        </mxCell>
        <mxCell id="6EdszNW5372otWSk4GKb-35" value="response" style="html=1;verticalAlign=bottom;endArrow=open;dashed=1;endSize=8;rounded=0;labelBackgroundColor=none;fontSize=11;curved=1;exitX=0;exitY=1;exitDx=0;exitDy=0;entryX=0.961;entryY=0.887;entryDx=0;entryDy=0;entryPerimeter=0;" edge="1" parent="1" source="6EdszNW5372otWSk4GKb-34" target="6EdszNW5372otWSk4GKb-29">
          <mxGeometry relative="1" as="geometry">
            <mxPoint x="840" y="440" as="sourcePoint" />
            <mxPoint x="700" y="440" as="targetPoint" />
          </mxGeometry>
        </mxCell>
        <mxCell id="6EdszNW5372otWSk4GKb-39" value="location" style="html=1;verticalAlign=bottom;endArrow=open;dashed=1;endSize=8;rounded=0;labelBackgroundColor=none;fontSize=11;curved=1;exitX=0;exitY=1;exitDx=0;exitDy=0;entryX=1.019;entryY=0.46;entryDx=0;entryDy=0;entryPerimeter=0;" edge="1" parent="1" source="6EdszNW5372otWSk4GKb-29" target="6EdszNW5372otWSk4GKb-17">
          <mxGeometry relative="1" as="geometry">
            <mxPoint x="675" y="450" as="sourcePoint" />
            <mxPoint x="360" y="450" as="targetPoint" />
          </mxGeometry>
        </mxCell>
        <mxCell id="6EdszNW5372otWSk4GKb-42" value="ADDRESS NOT FOUND" style="html=1;verticalAlign=bottom;endArrow=open;dashed=1;endSize=8;rounded=0;labelBackgroundColor=none;fontSize=11;curved=1;entryX=1;entryY=0;entryDx=0;entryDy=0;" edge="1" parent="1">
          <mxGeometry relative="1" as="geometry">
            <mxPoint x="340" y="480" as="sourcePoint" />
            <mxPoint x="205" y="480" as="targetPoint" />
          </mxGeometry>
        </mxCell>
        <mxCell id="6EdszNW5372otWSk4GKb-44" value="getCurrentAirQuality(location)" style="html=1;verticalAlign=bottom;endArrow=block;rounded=0;labelBackgroundColor=none;fontSize=11;curved=1;exitX=1.045;exitY=0.64;exitDx=0;exitDy=0;exitPerimeter=0;entryX=0;entryY=0;entryDx=0;entryDy=0;" edge="1" parent="1" source="6EdszNW5372otWSk4GKb-17" target="6EdszNW5372otWSk4GKb-45">
          <mxGeometry width="80" relative="1" as="geometry">
            <mxPoint x="360" y="540" as="sourcePoint" />
            <mxPoint x="960" y="540" as="targetPoint" />
          </mxGeometry>
        </mxCell>
        <mxCell id="dJ1RPKXm6JqfVN6oGj3c-18" style="edgeStyle=orthogonalEdgeStyle;curved=1;rounded=0;orthogonalLoop=1;jettySize=auto;html=1;exitX=0.5;exitY=1;exitDx=0;exitDy=0;dashed=1;labelBackgroundColor=none;fontSize=11;endArrow=none;endFill=0;" edge="1" parent="1" source="6EdszNW5372otWSk4GKb-45">
          <mxGeometry relative="1" as="geometry">
            <mxPoint x="974.666666666667" y="800" as="targetPoint" />
          </mxGeometry>
        </mxCell>
        <mxCell id="6EdszNW5372otWSk4GKb-45" value="" style="rounded=0;whiteSpace=wrap;html=1;" vertex="1" parent="1">
          <mxGeometry x="970" y="540" width="10" height="110" as="geometry" />
        </mxCell>
        <mxCell id="6EdszNW5372otWSk4GKb-48" value="getForEntity(url)" style="html=1;verticalAlign=bottom;endArrow=block;rounded=0;labelBackgroundColor=none;fontSize=11;curved=1;exitX=1.071;exitY=0.59;exitDx=0;exitDy=0;exitPerimeter=0;entryX=0;entryY=0;entryDx=0;entryDy=0;" edge="1" parent="1" source="6EdszNW5372otWSk4GKb-45" target="6EdszNW5372otWSk4GKb-53">
          <mxGeometry width="80" relative="1" as="geometry">
            <mxPoint x="990" y="605" as="sourcePoint" />
            <mxPoint x="1110" y="605" as="targetPoint" />
          </mxGeometry>
        </mxCell>
        <mxCell id="6EdszNW5372otWSk4GKb-49" value="response + location" style="html=1;verticalAlign=bottom;endArrow=open;dashed=1;endSize=8;rounded=0;labelBackgroundColor=none;fontSize=11;curved=1;exitX=0;exitY=1;exitDx=0;exitDy=0;entryX=1.094;entryY=0.868;entryDx=0;entryDy=0;entryPerimeter=0;" edge="1" parent="1" source="6EdszNW5372otWSk4GKb-53" target="6EdszNW5372otWSk4GKb-45">
          <mxGeometry relative="1" as="geometry">
            <mxPoint x="1110" y="635" as="sourcePoint" />
            <mxPoint x="990" y="635" as="targetPoint" />
          </mxGeometry>
        </mxCell>
        <mxCell id="6EdszNW5372otWSk4GKb-51" value="" style="endArrow=classic;html=1;rounded=0;labelBackgroundColor=none;edgeStyle=orthogonalEdgeStyle;curved=1;exitX=1.154;exitY=0.087;exitDx=0;exitDy=0;exitPerimeter=0;entryX=1.096;entryY=0.279;entryDx=0;entryDy=0;entryPerimeter=0;" edge="1" parent="1" source="6EdszNW5372otWSk4GKb-45" target="6EdszNW5372otWSk4GKb-45">
          <mxGeometry width="50" height="50" relative="1" as="geometry">
            <mxPoint x="990" y="549.98" as="sourcePoint" />
            <mxPoint x="990" y="569.98" as="targetPoint" />
            <Array as="points">
              <mxPoint x="1010" y="550" />
              <mxPoint x="1010" y="571" />
            </Array>
          </mxGeometry>
        </mxCell>
        <mxCell id="6EdszNW5372otWSk4GKb-52" value="url = location + api_key" style="text;html=1;align=center;verticalAlign=middle;resizable=0;points=[];autosize=1;strokeColor=none;fillColor=none;fontSize=11;" vertex="1" parent="1">
          <mxGeometry x="1000" y="540" width="130" height="20" as="geometry" />
        </mxCell>
        <mxCell id="dJ1RPKXm6JqfVN6oGj3c-19" style="edgeStyle=orthogonalEdgeStyle;curved=1;rounded=0;orthogonalLoop=1;jettySize=auto;html=1;exitX=0.5;exitY=1;exitDx=0;exitDy=0;dashed=1;labelBackgroundColor=none;fontSize=11;endArrow=none;endFill=0;" edge="1" parent="1" source="6EdszNW5372otWSk4GKb-53">
          <mxGeometry relative="1" as="geometry">
            <mxPoint x="1124.666666666667" y="800" as="targetPoint" />
          </mxGeometry>
        </mxCell>
        <mxCell id="6EdszNW5372otWSk4GKb-53" value="" style="rounded=0;whiteSpace=wrap;html=1;" vertex="1" parent="1">
          <mxGeometry x="1120" y="605" width="10" height="30" as="geometry" />
        </mxCell>
        <mxCell id="6EdszNW5372otWSk4GKb-54" value="airQuality" style="html=1;verticalAlign=bottom;endArrow=open;dashed=1;endSize=8;rounded=0;labelBackgroundColor=none;fontSize=11;curved=1;exitX=0;exitY=1;exitDx=0;exitDy=0;entryX=0.98;entryY=0.86;entryDx=0;entryDy=0;entryPerimeter=0;" edge="1" parent="1" source="6EdszNW5372otWSk4GKb-45" target="6EdszNW5372otWSk4GKb-17">
          <mxGeometry relative="1" as="geometry">
            <mxPoint x="965" y="650" as="sourcePoint" />
            <mxPoint x="360" y="650" as="targetPoint" />
          </mxGeometry>
        </mxCell>
        <mxCell id="6EdszNW5372otWSk4GKb-62" value="if (location == null)" style="shape=umlFrame;whiteSpace=wrap;html=1;fontSize=11;width=100;height=20;" vertex="1" parent="1">
          <mxGeometry x="-180" y="460" width="540" height="50" as="geometry" />
        </mxCell>
        <mxCell id="6EdszNW5372otWSk4GKb-63" value="if (airQuality == null)" style="shape=umlFrame;whiteSpace=wrap;html=1;fontSize=11;width=120;height=21;" vertex="1" parent="1">
          <mxGeometry x="-190" y="339" width="1330" height="331" as="geometry" />
        </mxCell>
        <mxCell id="6EdszNW5372otWSk4GKb-64" value="saveRequestToCache(hash, airQuality)" style="html=1;verticalAlign=bottom;endArrow=block;rounded=0;labelBackgroundColor=none;exitX=0.94;exitY=0.94;exitDx=0;exitDy=0;exitPerimeter=0;entryX=-0.219;entryY=0.017;entryDx=0;entryDy=0;entryPerimeter=0;" edge="1" parent="1" source="6EdszNW5372otWSk4GKb-17" target="6EdszNW5372otWSk4GKb-65">
          <mxGeometry x="0.0667" width="80" relative="1" as="geometry">
            <mxPoint x="360" y="690" as="sourcePoint" />
            <mxPoint x="560" y="690" as="targetPoint" />
            <mxPoint as="offset" />
          </mxGeometry>
        </mxCell>
        <mxCell id="dJ1RPKXm6JqfVN6oGj3c-15" style="edgeStyle=orthogonalEdgeStyle;curved=1;rounded=0;orthogonalLoop=1;jettySize=auto;html=1;exitX=0.5;exitY=1;exitDx=0;exitDy=0;dashed=1;labelBackgroundColor=none;fontSize=11;endArrow=none;endFill=0;" edge="1" parent="1" source="6EdszNW5372otWSk4GKb-65">
          <mxGeometry relative="1" as="geometry">
            <mxPoint x="575" y="800" as="targetPoint" />
          </mxGeometry>
        </mxCell>
        <mxCell id="6EdszNW5372otWSk4GKb-65" value="" style="rounded=0;whiteSpace=wrap;html=1;" vertex="1" parent="1">
          <mxGeometry x="570" y="690" width="10" height="30" as="geometry" />
        </mxCell>
        <mxCell id="6EdszNW5372otWSk4GKb-67" value="" style="endArrow=classic;html=1;rounded=0;labelBackgroundColor=none;edgeStyle=orthogonalEdgeStyle;curved=1;exitX=1;exitY=0.25;exitDx=0;exitDy=0;entryX=1;entryY=1;entryDx=0;entryDy=0;" edge="1" parent="1" source="6EdszNW5372otWSk4GKb-65" target="6EdszNW5372otWSk4GKb-65">
          <mxGeometry width="50" height="50" relative="1" as="geometry">
            <mxPoint x="585" y="700" as="sourcePoint" />
            <mxPoint x="585" y="720" as="targetPoint" />
            <Array as="points">
              <mxPoint x="580" y="700" />
              <mxPoint x="605" y="700" />
              <mxPoint x="605" y="720" />
            </Array>
          </mxGeometry>
        </mxCell>
        <mxCell id="6EdszNW5372otWSk4GKb-68" value="put(hash, airQuality)" style="text;html=1;align=center;verticalAlign=middle;resizable=0;points=[];autosize=1;strokeColor=none;fillColor=none;fontSize=11;" vertex="1" parent="1">
          <mxGeometry x="600" y="690" width="110" height="20" as="geometry" />
        </mxCell>
        <mxCell id="6EdszNW5372otWSk4GKb-69" value="airQuality" style="html=1;verticalAlign=bottom;endArrow=open;dashed=1;endSize=8;rounded=0;labelBackgroundColor=none;fontSize=11;curved=1;exitX=0;exitY=1;exitDx=0;exitDy=0;entryX=0.972;entryY=0.962;entryDx=0;entryDy=0;entryPerimeter=0;" edge="1" parent="1" source="6EdszNW5372otWSk4GKb-17" target="whTfhdEOWfVO-b64b6Nc-1">
          <mxGeometry relative="1" as="geometry">
            <mxPoint x="340" y="720" as="sourcePoint" />
            <mxPoint x="210" y="720" as="targetPoint" />
          </mxGeometry>
        </mxCell>
        <mxCell id="whTfhdEOWfVO-b64b6Nc-4" style="edgeStyle=orthogonalEdgeStyle;curved=1;rounded=0;orthogonalLoop=1;jettySize=auto;html=1;exitX=0.5;exitY=1;exitDx=0;exitDy=0;entryX=0.5;entryY=0;entryDx=0;entryDy=0;dashed=1;labelBackgroundColor=none;fontSize=11;endArrow=none;endFill=0;" edge="1" parent="1" source="6EdszNW5372otWSk4GKb-70" target="whTfhdEOWfVO-b64b6Nc-1">
          <mxGeometry relative="1" as="geometry" />
        </mxCell>
        <mxCell id="6EdszNW5372otWSk4GKb-70" value="/today" style="rounded=0;whiteSpace=wrap;html=1;fontSize=11;" vertex="1" parent="1">
          <mxGeometry x="160" y="160" width="80" height="40" as="geometry" />
        </mxCell>
        <mxCell id="whTfhdEOWfVO-b64b6Nc-1" value="" style="rounded=0;whiteSpace=wrap;html=1;" vertex="1" parent="1">
          <mxGeometry x="195" y="210" width="10" height="530" as="geometry" />
        </mxCell>
        <mxCell id="whTfhdEOWfVO-b64b6Nc-2" value="Content" style="html=1;verticalAlign=bottom;endArrow=open;dashed=1;endSize=8;rounded=0;labelBackgroundColor=none;fontSize=11;curved=1;entryX=0.9;entryY=0.966;entryDx=0;entryDy=0;entryPerimeter=0;exitX=0;exitY=1;exitDx=0;exitDy=0;" edge="1" parent="1" source="whTfhdEOWfVO-b64b6Nc-1" target="6EdszNW5372otWSk4GKb-15">
          <mxGeometry relative="1" as="geometry">
            <mxPoint x="190" y="740" as="sourcePoint" />
            <mxPoint x="90" y="740" as="targetPoint" />
          </mxGeometry>
        </mxCell>
        <mxCell id="dJ1RPKXm6JqfVN6oGj3c-1" value="address" style="html=1;verticalAlign=bottom;endArrow=block;rounded=0;labelBackgroundColor=none;entryX=0;entryY=0;entryDx=0;entryDy=0;exitX=0.972;exitY=0.018;exitDx=0;exitDy=0;exitPerimeter=0;" edge="1" parent="1" source="whTfhdEOWfVO-b64b6Nc-1" target="6EdszNW5372otWSk4GKb-17">
          <mxGeometry width="80" relative="1" as="geometry">
            <mxPoint x="210" y="220" as="sourcePoint" />
            <mxPoint x="340" y="220" as="targetPoint" />
          </mxGeometry>
        </mxCell>
        <mxCell id="dJ1RPKXm6JqfVN6oGj3c-4" value="Content" style="html=1;verticalAlign=bottom;endArrow=open;dashed=1;endSize=8;rounded=0;labelBackgroundColor=none;fontSize=11;curved=1;exitX=0;exitY=1;exitDx=0;exitDy=0;entryX=1.052;entryY=0.561;entryDx=0;entryDy=0;entryPerimeter=0;" edge="1" parent="1" target="6EdszNW5372otWSk4GKb-15">
          <mxGeometry relative="1" as="geometry">
            <mxPoint x="195" y="500" as="sourcePoint" />
            <mxPoint x="90" y="479.79" as="targetPoint" />
          </mxGeometry>
        </mxCell>
        <mxCell id="dJ1RPKXm6JqfVN6oGj3c-13" style="edgeStyle=orthogonalEdgeStyle;curved=1;rounded=0;orthogonalLoop=1;jettySize=auto;html=1;dashed=1;labelBackgroundColor=none;fontSize=11;endArrow=none;endFill=0;exitX=0.5;exitY=1;exitDx=0;exitDy=0;" edge="1" parent="1" source="whTfhdEOWfVO-b64b6Nc-1">
          <mxGeometry relative="1" as="geometry">
            <mxPoint x="200" y="800" as="targetPoint" />
            <mxPoint x="200" y="750" as="sourcePoint" />
          </mxGeometry>
        </mxCell>
        <mxCell id="dJ1RPKXm6JqfVN6oGj3c-9" value="" style="html=1;verticalAlign=bottom;endArrow=open;dashed=1;endSize=8;rounded=0;labelBackgroundColor=none;fontSize=11;curved=1;exitX=0;exitY=1;exitDx=0;exitDy=0;entryX=0.96;entryY=0.983;entryDx=0;entryDy=0;entryPerimeter=0;" edge="1" parent="1" source="6EdszNW5372otWSk4GKb-15" target="6EdszNW5372otWSk4GKb-14">
          <mxGeometry relative="1" as="geometry">
            <mxPoint x="65" y="760" as="sourcePoint" />
            <mxPoint x="-40" y="760" as="targetPoint" />
          </mxGeometry>
        </mxCell>
        <mxCell id="dJ1RPKXm6JqfVN6oGj3c-10" value="Results" style="edgeLabel;html=1;align=center;verticalAlign=middle;resizable=0;points=[];fontSize=11;" vertex="1" connectable="0" parent="dJ1RPKXm6JqfVN6oGj3c-9">
          <mxGeometry x="0.0519" y="1" relative="1" as="geometry">
            <mxPoint y="-11" as="offset" />
          </mxGeometry>
        </mxCell>
        <mxCell id="dJ1RPKXm6JqfVN6oGj3c-21" value="Get Air Quality" style="swimlane;fontSize=11;" vertex="1" parent="1">
          <mxGeometry x="-200" y="40" width="1390" height="760" as="geometry" />
        </mxCell>
        <mxCell id="E-gyuBNsiE0x_QoVY08F-1" value="AS-EX 4.3 a)&lt;br&gt;Grupo 601 (DF, DC, ST, FC)&lt;br&gt;v2022/03/30" style="shape=note2;boundedLbl=1;whiteSpace=wrap;html=1;size=11;verticalAlign=top;align=left;fontSize=9;fillColor=#dae8fc;strokeColor=#6c8ebf;" vertex="1" parent="1">
          <mxGeometry x="-210" y="820" width="125" height="50" as="geometry" />
        </mxCell>
      </root>
    </mxGraphModel>
  </diagram>
</mxfile>
